<svg xmlns="http://www.w3.org/2000/svg" xmlns:xlink="http://www.w3.org/1999/xlink" width="1200" zoomAndPan="magnify" viewBox="0 0 900 1124.99995" height="1500" preserveAspectRatio="xMidYMid meet" version="1.2"><defs><clipPath id="83726d4ee1"><path d="M 68.007812 554 L 275 554 L 275 881 L 68.007812 881 Z M 68.007812 554 "/></clipPath><clipPath id="32250c43e7"><path d="M 458 657 L 641 657 L 641 932.253906 L 458 932.253906 Z M 458 657 "/></clipPath><clipPath id="3d2de39c50"><path d="M 254 657 L 438 657 L 438 932.253906 L 254 932.253906 Z M 254 657 "/></clipPath><clipPath id="c067aadd73"><path d="M 421 141.003906 L 430 141.003906 L 430 189 L 421 189 Z M 421 141.003906 "/></clipPath><clipPath id="56862c7a41"><path d="M 376 141.003906 L 385 141.003906 L 385 189 L 376 189 Z M 376 141.003906 "/></clipPath><clipPath id="d001f94ce0"><path d="M 114.179688 410.15625 L 226.402344 410.15625 L 226.402344 522.378906 L 114.179688 522.378906 Z M 114.179688 410.15625 "/></clipPath><clipPath id="72a9f1e782"><path d="M 170.289062 410.15625 C 139.300781 410.15625 114.179688 435.277344 114.179688 466.269531 C 114.179688 497.257812 139.300781 522.378906 170.289062 522.378906 C 201.277344 522.378906 226.402344 497.257812 226.402344 466.269531 C 226.402344 435.277344 201.277344 410.15625 170.289062 410.15625 Z M 170.289062 410.15625 "/></clipPath><clipPath id="ed5fcfbd99"><path d="M 570.070312 291.847656 L 682.292969 291.847656 L 682.292969 421.167969 L 570.070312 421.167969 Z M 570.070312 291.847656 "/></clipPath><clipPath id="ce062b160d"><path d="M 626.179688 291.847656 C 595.191406 291.847656 570.070312 320.765625 570.070312 356.4375 C 570.070312 392.105469 595.191406 421.023438 626.179688 421.023438 C 657.171875 421.023438 682.292969 392.105469 682.292969 356.4375 C 682.292969 320.765625 657.171875 291.847656 626.179688 291.847656 Z M 626.179688 291.847656 "/></clipPath><filter x="0%" y="0%" width="100%" filterUnits="objectBoundingBox" id="e08d1ab244" height="100%"><feColorMatrix values="0 0 0 0 1 0 0 0 0 1 0 0 0 0 1 0 0 0 1 0" type="matrix" in="SourceGraphic"/></filter><clipPath id="5228d625e1"><rect x="0" width="55" y="0" height="126"/></clipPath><clipPath id="4dc36a9182"><rect x="0" width="55" y="0" height="126"/></clipPath></defs><g id="ae924d4675"><g clip-rule="nonzero" clip-path="url(#83726d4ee1)"><path style=" stroke:none;fill-rule:nonzero;fill:#117f46;fill-opacity:1;" d="M 270.992188 880.003906 C 270.355469 880.003906 269.710938 879.851562 269.113281 879.527344 C 256.253906 872.597656 243.652344 864.839844 231.652344 856.46875 C 229.855469 855.210938 229.414062 852.734375 230.671875 850.9375 C 231.925781 849.136719 234.402344 848.695312 236.203125 849.953125 C 247.949219 858.152344 260.289062 865.75 272.882812 872.535156 C 274.8125 873.574219 275.535156 875.984375 274.492188 877.917969 C 273.777344 879.25 272.40625 880.003906 270.992188 880.003906 Z M 199.714844 830.269531 C 198.78125 830.269531 197.84375 829.941406 197.085938 829.269531 C 186.136719 819.59375 175.625 809.175781 165.851562 798.308594 C 164.382812 796.679688 164.515625 794.167969 166.144531 792.699219 C 167.777344 791.230469 170.289062 791.363281 171.757812 792.996094 C 181.332031 803.636719 191.621094 813.839844 202.347656 823.316406 C 203.992188 824.769531 204.144531 827.28125 202.691406 828.925781 C 201.910156 829.8125 200.8125 830.269531 199.714844 830.269531 Z M 141.59375 765.660156 C 140.351562 765.660156 139.128906 765.078125 138.355469 763.988281 C 129.878906 752.070312 122.007812 739.539062 114.96875 726.746094 C 113.910156 724.824219 114.609375 722.410156 116.53125 721.351562 C 118.453125 720.292969 120.867188 720.996094 121.925781 722.917969 C 128.824219 735.441406 136.527344 747.710938 144.828125 759.382812 C 146.101562 761.171875 145.679688 763.652344 143.894531 764.921875 C 143.195312 765.421875 142.390625 765.660156 141.59375 765.660156 Z M 99.695312 689.542969 C 98.128906 689.542969 96.644531 688.609375 96.015625 687.070312 C 90.492188 673.542969 85.699219 659.546875 81.777344 645.476562 C 81.1875 643.363281 82.421875 641.171875 84.535156 640.582031 C 86.648438 639.992188 88.839844 641.226562 89.429688 643.339844 C 93.269531 657.121094 97.960938 670.820312 103.371094 684.066406 C 104.203125 686.097656 103.226562 688.414062 101.195312 689.246094 C 100.703125 689.445312 100.195312 689.542969 99.695312 689.542969 Z M 76.355469 605.851562 C 74.433594 605.851562 72.742188 604.453125 72.433594 602.496094 C 70.167969 588.097656 68.707031 573.375 68.09375 558.734375 C 68.003906 556.542969 69.703125 554.691406 71.898438 554.597656 C 74.089844 554.511719 75.941406 556.210938 76.03125 558.402344 C 76.632812 572.738281 78.0625 587.160156 80.28125 601.261719 C 80.625 603.425781 79.144531 605.460938 76.976562 605.800781 C 76.769531 605.835938 76.558594 605.851562 76.355469 605.851562 Z M 76.355469 605.851562 "/></g><path style=" stroke:none;fill-rule:nonzero;fill:#117f46;fill-opacity:1;" d="M 631.992188 878.792969 C 630.589844 878.792969 629.226562 878.046875 628.507812 876.726562 C 627.453125 874.800781 628.15625 872.390625 630.082031 871.335938 C 642.625 864.464844 654.910156 856.789062 666.605469 848.511719 C 668.394531 847.246094 670.875 847.667969 672.140625 849.460938 C 673.410156 851.25 672.984375 853.730469 671.195312 854.996094 C 659.253906 863.449219 646.707031 871.289062 633.898438 878.304688 C 633.292969 878.632812 632.636719 878.792969 631.992188 878.792969 Z M 702.929688 828.585938 C 701.835938 828.585938 700.753906 828.140625 699.96875 827.265625 C 698.503906 825.632812 698.640625 823.121094 700.277344 821.65625 C 710.941406 812.105469 721.164062 801.832031 730.664062 791.128906 C 732.121094 789.488281 734.632812 789.339844 736.273438 790.796875 C 737.914062 792.253906 738.0625 794.765625 736.605469 796.40625 C 726.90625 807.332031 716.464844 817.820312 705.578125 827.574219 C 704.820312 828.253906 703.871094 828.585938 702.929688 828.585938 Z M 760.621094 763.589844 C 759.835938 763.589844 759.039062 763.355469 758.34375 762.867188 C 756.546875 761.609375 756.113281 759.132812 757.375 757.335938 C 765.597656 745.605469 773.222656 733.28125 780.035156 720.707031 C 781.082031 718.777344 783.492188 718.0625 785.421875 719.105469 C 787.351562 720.152344 788.066406 722.5625 787.023438 724.492188 C 780.0625 737.332031 772.277344 749.917969 763.878906 761.898438 C 763.105469 763 761.875 763.589844 760.621094 763.589844 Z M 802.019531 687.164062 C 801.527344 687.164062 801.027344 687.074219 800.542969 686.878906 C 798.507812 686.0625 797.519531 683.75 798.332031 681.714844 C 803.65625 668.421875 808.257812 654.679688 812.003906 640.871094 C 812.578125 638.753906 814.761719 637.5 816.878906 638.078125 C 818.996094 638.652344 820.246094 640.832031 819.671875 642.949219 C 815.84375 657.058594 811.144531 671.09375 805.710938 684.667969 C 805.085938 686.21875 803.597656 687.164062 802.019531 687.164062 Z M 802.019531 687.164062 "/><path style=" stroke:none;fill-rule:nonzero;fill:#117f46;fill-opacity:1;" d="M 603.226562 199.925781 C 602.691406 199.925781 602.144531 199.816406 601.625 199.585938 C 588.527344 193.800781 574.953125 188.722656 561.285156 184.492188 C 559.1875 183.84375 558.015625 181.617188 558.664062 179.523438 C 559.3125 177.425781 561.539062 176.253906 563.632812 176.902344 C 577.59375 181.222656 591.457031 186.410156 604.835938 192.320312 C 606.839844 193.207031 607.75 195.550781 606.863281 197.558594 C 606.207031 199.042969 604.753906 199.925781 603.226562 199.925781 Z M 520.203125 174.230469 C 519.960938 174.230469 519.714844 174.210938 519.46875 174.164062 C 505.425781 171.546875 491.050781 169.714844 476.738281 168.71875 C 474.546875 168.566406 472.898438 166.667969 473.050781 164.480469 C 473.203125 162.292969 475.089844 160.640625 477.289062 160.792969 C 491.902344 161.808594 506.585938 163.679688 520.925781 166.351562 C 523.082031 166.753906 524.503906 168.828125 524.101562 170.984375 C 523.746094 172.894531 522.078125 174.230469 520.203125 174.230469 Z M 520.203125 174.230469 "/><path style=" stroke:none;fill-rule:nonzero;fill:#a1f7da;fill-opacity:1;" d="M 728.386719 542.484375 C 728.386719 547.035156 728.277344 551.582031 728.054688 556.125 C 727.828125 560.671875 727.496094 565.207031 727.050781 569.734375 C 726.601562 574.261719 726.046875 578.777344 725.378906 583.277344 C 724.710938 587.777344 723.933594 592.257812 723.046875 596.722656 C 722.160156 601.183594 721.160156 605.621094 720.054688 610.035156 C 718.949219 614.449219 717.738281 618.832031 716.417969 623.1875 C 715.097656 627.539062 713.667969 631.859375 712.136719 636.144531 C 710.605469 640.425781 708.96875 644.671875 707.226562 648.875 C 705.484375 653.078125 703.640625 657.234375 701.695312 661.347656 C 699.75 665.460938 697.707031 669.523438 695.5625 673.539062 C 693.417969 677.550781 691.175781 681.507812 688.835938 685.410156 C 686.496094 689.3125 684.0625 693.15625 681.535156 696.9375 C 679.007812 700.722656 676.386719 704.441406 673.679688 708.09375 C 670.96875 711.75 668.167969 715.335938 665.28125 718.851562 C 662.394531 722.371094 659.425781 725.8125 656.371094 729.183594 C 653.3125 732.554688 650.179688 735.851562 646.960938 739.066406 C 643.742188 742.285156 640.449219 745.421875 637.078125 748.476562 C 633.707031 751.53125 630.261719 754.503906 626.746094 757.390625 C 623.230469 760.277344 619.644531 763.074219 615.988281 765.785156 C 612.332031 768.496094 608.613281 771.113281 604.832031 773.640625 C 601.046875 776.167969 597.207031 778.601562 593.304688 780.941406 C 589.402344 783.28125 585.441406 785.523438 581.429688 787.667969 C 577.417969 789.8125 573.355469 791.859375 569.242188 793.804688 C 565.128906 795.75 560.972656 797.589844 556.765625 799.332031 C 552.5625 801.074219 548.320312 802.710938 544.035156 804.242188 C 539.753906 805.777344 535.433594 807.203125 531.078125 808.523438 C 526.726562 809.84375 522.34375 811.058594 517.929688 812.164062 C 513.515625 813.269531 509.078125 814.265625 504.613281 815.152344 C 500.152344 816.039062 495.671875 816.816406 491.171875 817.484375 C 486.667969 818.152344 482.15625 818.710938 477.628906 819.15625 C 473.097656 819.601562 468.5625 819.9375 464.019531 820.160156 C 459.472656 820.382812 454.925781 820.496094 450.378906 820.496094 C 445.828125 820.496094 441.28125 820.382812 436.734375 820.160156 C 432.191406 819.9375 427.65625 819.601562 423.128906 819.15625 C 418.601562 818.710938 414.085938 818.152344 409.585938 817.484375 C 405.085938 816.816406 400.601562 816.039062 396.140625 815.152344 C 391.679688 814.265625 387.238281 813.269531 382.828125 812.164062 C 378.414062 811.058594 374.027344 809.84375 369.675781 808.523438 C 365.320312 807.203125 361.003906 805.777344 356.71875 804.242188 C 352.433594 802.710938 348.191406 801.074219 343.988281 799.332031 C 339.785156 797.589844 335.625 795.75 331.511719 793.804688 C 327.398438 791.859375 323.335938 789.8125 319.324219 787.667969 C 315.3125 785.523438 311.355469 783.28125 307.453125 780.941406 C 303.550781 778.601562 299.707031 776.167969 295.921875 773.640625 C 292.140625 771.113281 288.421875 768.496094 284.765625 765.785156 C 281.113281 763.074219 277.527344 760.277344 274.007812 757.390625 C 270.492188 754.503906 267.046875 751.53125 263.675781 748.476562 C 260.304688 745.421875 257.011719 742.285156 253.792969 739.066406 C 250.578125 735.851562 247.441406 732.554688 244.386719 729.183594 C 241.328125 725.8125 238.359375 722.371094 235.472656 718.851562 C 232.585938 715.335938 229.789062 711.75 227.078125 708.09375 C 224.367188 704.441406 221.746094 700.722656 219.21875 696.9375 C 216.691406 693.15625 214.257812 689.3125 211.917969 685.410156 C 209.582031 681.507812 207.339844 677.550781 205.195312 673.539062 C 203.050781 669.523438 201.003906 665.460938 199.058594 661.347656 C 197.113281 657.234375 195.269531 653.078125 193.527344 648.875 C 191.789062 644.671875 190.152344 640.425781 188.617188 636.144531 C 187.085938 631.859375 185.660156 627.539062 184.335938 623.1875 C 183.015625 618.832031 181.804688 614.449219 180.699219 610.035156 C 179.59375 605.621094 178.597656 601.183594 177.707031 596.722656 C 176.820312 592.257812 176.042969 587.777344 175.375 583.277344 C 174.707031 578.777344 174.152344 574.261719 173.707031 569.734375 C 173.257812 565.207031 172.925781 560.671875 172.703125 556.125 C 172.476562 551.582031 172.367188 547.035156 172.367188 542.484375 C 172.367188 537.933594 172.476562 533.386719 172.703125 528.84375 C 172.925781 524.296875 173.257812 519.761719 173.707031 515.234375 C 174.152344 510.707031 174.707031 506.191406 175.375 501.691406 C 176.042969 497.191406 176.820312 492.710938 177.707031 488.246094 C 178.597656 483.785156 179.59375 479.347656 180.699219 474.933594 C 181.804688 470.519531 183.015625 466.136719 184.339844 461.78125 C 185.660156 457.429688 187.085938 453.109375 188.617188 448.824219 C 190.152344 444.542969 191.789062 440.296875 193.527344 436.09375 C 195.269531 431.890625 197.113281 427.730469 199.058594 423.621094 C 201.003906 419.507812 203.050781 415.445312 205.195312 411.429688 C 207.339844 407.417969 209.582031 403.460938 211.917969 399.558594 C 214.257812 395.65625 216.691406 391.8125 219.21875 388.03125 C 221.746094 384.246094 224.367188 380.527344 227.078125 376.875 C 229.789062 373.21875 232.585938 369.632812 235.472656 366.117188 C 238.359375 362.597656 241.328125 359.15625 244.386719 355.785156 C 247.441406 352.414062 250.578125 349.117188 253.792969 345.902344 C 257.011719 342.683594 260.304688 339.546875 263.675781 336.492188 C 267.046875 333.4375 270.492188 330.464844 274.007812 327.578125 C 277.527344 324.691406 281.113281 321.894531 284.765625 319.183594 C 288.421875 316.472656 292.140625 313.855469 295.921875 311.328125 C 299.707031 308.800781 303.550781 306.367188 307.453125 304.027344 C 311.355469 301.6875 315.3125 299.445312 319.324219 297.300781 C 323.335938 295.15625 327.398438 293.109375 331.511719 291.164062 C 335.625 289.21875 339.785156 287.375 343.988281 285.636719 C 348.191406 283.894531 352.433594 282.257812 356.71875 280.726562 C 361.003906 279.191406 365.320312 277.765625 369.675781 276.445312 C 374.027344 275.125 378.414062 273.910156 382.828125 272.804688 C 387.238281 271.699219 391.679688 270.703125 396.140625 269.816406 C 400.601562 268.929688 405.085938 268.148438 409.585938 267.484375 C 414.085938 266.816406 418.601562 266.257812 423.128906 265.8125 C 427.65625 265.367188 432.191406 265.03125 436.734375 264.808594 C 441.28125 264.585938 445.828125 264.472656 450.378906 264.472656 C 454.925781 264.472656 459.472656 264.585938 464.019531 264.808594 C 468.5625 265.03125 473.097656 265.367188 477.628906 265.8125 C 482.15625 266.257812 486.667969 266.816406 491.171875 267.484375 C 495.671875 268.148438 500.152344 268.929688 504.613281 269.816406 C 509.078125 270.703125 513.515625 271.699219 517.929688 272.804688 C 522.34375 273.910156 526.726562 275.125 531.078125 276.445312 C 535.433594 277.765625 539.753906 279.191406 544.035156 280.726562 C 548.320312 282.257812 552.5625 283.894531 556.765625 285.636719 C 560.972656 287.375 565.128906 289.21875 569.242188 291.164062 C 573.355469 293.109375 577.417969 295.15625 581.429688 297.300781 C 585.445312 299.445312 589.402344 301.6875 593.304688 304.027344 C 597.207031 306.367188 601.050781 308.800781 604.832031 311.328125 C 608.613281 313.855469 612.332031 316.472656 615.988281 319.183594 C 619.644531 321.894531 623.230469 324.691406 626.746094 327.578125 C 630.261719 330.464844 633.707031 333.4375 637.078125 336.492188 C 640.449219 339.546875 643.742188 342.683594 646.960938 345.902344 C 650.179688 349.117188 653.3125 352.414062 656.371094 355.785156 C 659.425781 359.15625 662.394531 362.597656 665.28125 366.117188 C 668.167969 369.632812 670.96875 373.21875 673.679688 376.875 C 676.386719 380.527344 679.007812 384.246094 681.535156 388.03125 C 684.0625 391.8125 686.496094 395.65625 688.835938 399.558594 C 691.175781 403.460938 693.417969 407.417969 695.5625 411.429688 C 697.707031 415.445312 699.75 419.507812 701.695312 423.621094 C 703.640625 427.730469 705.484375 431.890625 707.226562 436.09375 C 708.96875 440.296875 710.605469 444.542969 712.136719 448.824219 C 713.667969 453.109375 715.097656 457.429688 716.417969 461.78125 C 717.738281 466.136719 718.949219 470.519531 720.054688 474.933594 C 721.160156 479.347656 722.160156 483.785156 723.046875 488.246094 C 723.933594 492.710938 724.710938 497.191406 725.378906 501.691406 C 726.046875 506.191406 726.601562 510.707031 727.050781 515.234375 C 727.496094 519.761719 727.828125 524.296875 728.054688 528.84375 C 728.277344 533.386719 728.386719 537.933594 728.386719 542.484375 Z M 728.386719 542.484375 "/><path style=" stroke:none;fill-rule:nonzero;fill:#60ad2f;fill-opacity:1;" d="M 552.449219 583.546875 L 552.449219 269.28125 C 552.449219 262.515625 557.929688 257.035156 564.691406 257.035156 L 794.382812 257.035156 C 801.144531 257.035156 806.628906 262.515625 806.628906 269.28125 L 806.628906 583.546875 C 806.628906 590.308594 801.144531 595.792969 794.382812 595.792969 L 564.691406 595.792969 C 557.929688 595.792969 552.449219 590.308594 552.449219 583.546875 Z M 552.449219 583.546875 "/><path style=" stroke:none;fill-rule:nonzero;fill:#117f46;fill-opacity:1;" d="M 794.382812 599.765625 L 564.691406 599.765625 C 555.75 599.765625 548.476562 592.488281 548.476562 583.546875 L 548.476562 269.28125 C 548.476562 260.335938 555.75 253.0625 564.691406 253.0625 L 794.382812 253.0625 C 803.324219 253.0625 810.597656 260.335938 810.597656 269.28125 L 810.597656 583.546875 C 810.601562 592.488281 803.324219 599.765625 794.382812 599.765625 Z M 564.691406 261.007812 C 560.132812 261.007812 556.421875 264.71875 556.421875 269.28125 L 556.421875 583.546875 C 556.421875 588.109375 560.132812 591.820312 564.691406 591.820312 L 794.382812 591.820312 C 798.945312 591.820312 802.65625 588.109375 802.65625 583.546875 L 802.65625 269.28125 C 802.65625 264.71875 798.945312 261.007812 794.382812 261.007812 Z M 564.691406 261.007812 "/><path style=" stroke:none;fill-rule:nonzero;fill:#117f46;fill-opacity:1;" d="M 642.949219 402.632812 L 620.339844 402.632812 C 610.191406 402.632812 601.933594 394.378906 601.933594 384.230469 C 601.933594 382.035156 603.710938 380.257812 605.90625 380.257812 C 608.097656 380.257812 609.878906 382.035156 609.878906 384.230469 C 609.878906 389.996094 614.570312 394.6875 620.339844 394.6875 L 642.949219 394.6875 C 648.714844 394.6875 653.40625 389.996094 653.40625 384.230469 L 653.40625 371.628906 C 653.40625 365.859375 648.714844 361.167969 642.949219 361.167969 L 620.339844 361.167969 C 610.191406 361.167969 601.933594 352.910156 601.933594 342.761719 L 601.933594 330.164062 C 601.933594 320.015625 610.191406 311.757812 620.339844 311.757812 L 642.949219 311.757812 C 653.097656 311.757812 661.351562 320.015625 661.351562 330.164062 C 661.351562 332.355469 659.574219 334.136719 657.378906 334.136719 C 655.1875 334.136719 653.40625 332.355469 653.40625 330.164062 C 653.40625 324.394531 648.714844 319.703125 642.949219 319.703125 L 620.339844 319.703125 C 614.570312 319.703125 609.878906 324.394531 609.878906 330.164062 L 609.878906 342.761719 C 609.878906 348.53125 614.570312 353.222656 620.339844 353.222656 L 642.949219 353.222656 C 653.097656 353.222656 661.351562 361.480469 661.351562 371.628906 L 661.351562 384.230469 C 661.351562 394.378906 653.097656 402.632812 642.949219 402.632812 Z M 642.949219 402.632812 "/><path style=" stroke:none;fill-rule:nonzero;fill:#117f46;fill-opacity:1;" d="M 631.644531 416.679688 C 629.449219 416.679688 627.671875 414.902344 627.671875 412.707031 L 627.671875 398.660156 C 627.671875 396.46875 629.449219 394.6875 631.644531 394.6875 C 633.835938 394.6875 635.617188 396.46875 635.617188 398.660156 L 635.617188 412.707031 C 635.617188 414.902344 633.835938 416.679688 631.644531 416.679688 Z M 631.644531 416.679688 "/><path style=" stroke:none;fill-rule:nonzero;fill:#117f46;fill-opacity:1;" d="M 631.644531 319.703125 C 629.449219 319.703125 627.671875 317.925781 627.671875 315.730469 L 627.671875 300.089844 C 627.671875 297.898438 629.449219 296.117188 631.644531 296.117188 C 633.835938 296.117188 635.617188 297.898438 635.617188 300.089844 L 635.617188 315.730469 C 635.617188 317.925781 633.835938 319.703125 631.644531 319.703125 Z M 631.644531 319.703125 "/><path style=" stroke:none;fill-rule:nonzero;fill:#117f46;fill-opacity:1;" d="M 744.585938 360.371094 L 691.152344 360.371094 C 688.957031 360.371094 687.179688 358.59375 687.179688 356.398438 C 687.179688 354.207031 688.960938 352.425781 691.152344 352.425781 L 744.585938 352.425781 C 746.777344 352.425781 748.558594 354.207031 748.558594 356.398438 C 748.558594 358.59375 746.777344 360.371094 744.585938 360.371094 Z M 744.585938 360.371094 "/><path style=" stroke:none;fill-rule:nonzero;fill:#117f46;fill-opacity:1;" d="M 744.585938 398.277344 L 691.152344 398.277344 C 688.957031 398.277344 687.179688 396.5 687.179688 394.304688 C 687.179688 392.113281 688.960938 390.332031 691.152344 390.332031 L 744.585938 390.332031 C 746.777344 390.332031 748.558594 392.113281 748.558594 394.304688 C 748.558594 396.5 746.777344 398.277344 744.585938 398.277344 Z M 744.585938 398.277344 "/><path style=" stroke:none;fill-rule:nonzero;fill:#117f46;fill-opacity:1;" d="M 744.585938 322.464844 L 691.152344 322.464844 C 688.957031 322.464844 687.179688 320.6875 687.179688 318.492188 C 687.179688 316.300781 688.960938 314.519531 691.152344 314.519531 L 744.585938 314.519531 C 746.777344 314.519531 748.558594 316.300781 748.558594 318.492188 C 748.558594 320.6875 746.777344 322.464844 744.585938 322.464844 Z M 744.585938 322.464844 "/><path style=" stroke:none;fill-rule:nonzero;fill:#ffe161;fill-opacity:1;" d="M 658.371094 239.6875 C 658.371094 228 667.847656 218.519531 679.539062 218.519531 C 691.230469 218.519531 700.707031 228 700.707031 239.6875 L 735.59375 239.6875 C 740.101562 239.6875 743.757812 243.34375 743.757812 247.851562 L 743.757812 270.335938 C 743.757812 274.84375 740.101562 278.5 735.59375 278.5 L 623.484375 278.5 C 618.972656 278.5 615.320312 274.84375 615.320312 270.335938 L 615.320312 247.851562 C 615.320312 243.34375 618.972656 239.6875 623.484375 239.6875 Z M 658.371094 239.6875 "/><path style=" stroke:none;fill-rule:nonzero;fill:#117f46;fill-opacity:1;" d="M 735.59375 282.472656 L 623.484375 282.472656 C 616.792969 282.472656 611.347656 277.027344 611.347656 270.335938 L 611.347656 247.851562 C 611.347656 241.160156 616.792969 235.714844 623.484375 235.714844 L 654.710938 235.714844 C 656.621094 223.734375 667.027344 214.546875 679.539062 214.546875 C 692.046875 214.546875 702.453125 223.734375 704.363281 235.714844 L 735.59375 235.714844 C 742.285156 235.714844 747.730469 241.160156 747.730469 247.851562 L 747.730469 270.335938 C 747.730469 277.027344 742.285156 282.472656 735.59375 282.472656 Z M 623.484375 243.660156 C 621.171875 243.660156 619.292969 245.539062 619.292969 247.851562 L 619.292969 270.335938 C 619.292969 272.648438 621.171875 274.527344 623.484375 274.527344 L 735.59375 274.527344 C 737.90625 274.527344 739.785156 272.648438 739.785156 270.335938 L 739.785156 247.851562 C 739.785156 245.539062 737.902344 243.660156 735.59375 243.660156 L 700.707031 243.660156 C 698.511719 243.660156 696.734375 241.882812 696.734375 239.6875 C 696.734375 230.207031 689.019531 222.492188 679.539062 222.492188 C 670.058594 222.492188 662.34375 230.207031 662.34375 239.6875 C 662.34375 241.882812 660.566406 243.660156 658.371094 243.660156 Z M 623.484375 243.660156 "/><path style=" stroke:none;fill-rule:nonzero;fill:#ffe161;fill-opacity:1;" d="M 525.710938 413.027344 C 534.019531 404.71875 547.484375 404.71875 555.796875 413.027344 L 628.800781 486.03125 L 673.246094 441.585938 C 681.550781 433.285156 695.015625 433.277344 703.328125 441.585938 L 785.355469 523.613281 L 785.355469 480.457031 C 785.355469 468.707031 794.878906 459.183594 806.628906 459.183594 C 818.375 459.183594 827.902344 468.707031 827.902344 480.457031 L 827.902344 574.960938 C 827.902344 576.359375 827.753906 577.757812 827.480469 579.132812 C 827.355469 579.753906 827.125 580.332031 826.949219 580.929688 C 826.734375 581.660156 826.566406 582.394531 826.273438 583.105469 C 825.976562 583.816406 825.574219 584.457031 825.207031 585.128906 C 824.910156 585.671875 824.671875 586.242188 824.320312 586.765625 C 822.761719 589.097656 820.757812 591.101562 818.421875 592.660156 C 817.910156 593.003906 817.355469 593.234375 816.824219 593.527344 C 816.140625 593.902344 815.484375 594.3125 814.761719 594.613281 C 814.066406 594.902344 813.335938 595.066406 812.617188 595.277344 C 812.007812 595.457031 811.425781 595.695312 810.792969 595.820312 C 809.417969 596.09375 808.023438 596.238281 806.628906 596.238281 L 712.117188 596.238281 C 700.367188 596.238281 690.84375 586.714844 690.84375 574.96875 C 690.84375 563.21875 700.367188 553.695312 712.117188 553.695312 L 755.273438 553.695312 L 688.289062 486.710938 L 643.84375 531.152344 C 635.53125 539.464844 622.066406 539.464844 613.757812 531.152344 L 525.710938 443.109375 C 517.402344 434.804688 517.402344 421.332031 525.710938 413.027344 Z M 525.710938 413.027344 "/><path style=" stroke:none;fill-rule:nonzero;fill:#117f46;fill-opacity:1;" d="M 806.628906 600.210938 L 712.113281 600.210938 C 698.195312 600.210938 686.871094 588.886719 686.871094 574.96875 C 686.871094 561.046875 698.195312 549.722656 712.113281 549.722656 L 745.683594 549.722656 L 688.285156 492.328125 L 646.648438 533.964844 C 641.730469 538.882812 635.261719 541.34375 628.800781 541.34375 C 622.332031 541.347656 615.871094 538.886719 610.949219 533.964844 L 522.902344 445.917969 C 518.132812 441.152344 515.507812 434.8125 515.507812 428.070312 C 515.507812 421.324219 518.132812 414.988281 522.902344 410.21875 C 527.671875 405.449219 534.011719 402.824219 540.753906 402.824219 C 547.496094 402.824219 553.835938 405.449219 558.605469 410.21875 L 628.800781 480.414062 L 670.4375 438.777344 C 680.28125 428.941406 696.296875 428.941406 706.136719 438.777344 L 781.382812 514.023438 L 781.382812 480.457031 C 781.382812 466.535156 792.707031 455.210938 806.628906 455.210938 C 820.546875 455.210938 831.871094 466.535156 831.871094 480.457031 L 831.871094 574.960938 C 831.871094 576.585938 831.707031 578.25 831.378906 579.90625 C 831.25 580.558594 831.0625 581.117188 830.914062 581.566406 C 830.863281 581.726562 830.808594 581.886719 830.757812 582.050781 C 830.710938 582.214844 830.664062 582.382812 830.617188 582.554688 C 830.449219 583.171875 830.253906 583.871094 829.945312 584.621094 C 829.632812 585.378906 829.269531 586.015625 828.953125 586.574219 C 828.863281 586.726562 828.777344 586.882812 828.691406 587.039062 C 828.613281 587.179688 828.539062 587.328125 828.464844 587.476562 C 828.253906 587.902344 827.988281 588.425781 827.621094 588.972656 C 825.761719 591.753906 823.410156 594.105469 820.628906 595.964844 C 820.09375 596.320312 819.582031 596.578125 819.171875 596.785156 C 819.023438 596.859375 818.878906 596.933594 818.734375 597.011719 C 818.597656 597.085938 818.449219 597.171875 818.300781 597.253906 C 817.71875 597.585938 817.0625 597.960938 816.28125 598.285156 C 815.546875 598.585938 814.863281 598.777344 814.257812 598.945312 C 814.085938 598.992188 813.914062 599.039062 813.742188 599.089844 C 813.566406 599.140625 813.40625 599.195312 813.242188 599.25 C 812.785156 599.398438 812.21875 599.585938 811.5625 599.71875 C 809.917969 600.042969 808.257812 600.210938 806.628906 600.210938 Z M 712.113281 557.667969 C 702.574219 557.667969 694.8125 565.425781 694.8125 574.964844 C 694.8125 584.503906 702.574219 592.265625 712.113281 592.265625 L 806.625 592.265625 C 807.734375 592.265625 808.875 592.152344 810.015625 591.921875 C 810.195312 591.886719 810.464844 591.800781 810.75 591.703125 C 810.996094 591.621094 811.246094 591.539062 811.5 591.464844 C 811.707031 591.40625 811.925781 591.34375 812.140625 591.285156 C 812.578125 591.164062 812.957031 591.058594 813.242188 590.941406 C 813.5625 590.808594 813.9375 590.597656 814.371094 590.351562 C 814.546875 590.25 814.722656 590.148438 814.898438 590.050781 C 815.140625 589.917969 815.371094 589.800781 815.601562 589.683594 C 815.851562 589.5625 816.082031 589.445312 816.210938 589.359375 C 818.125 588.082031 819.738281 586.464844 821.015625 584.558594 C 821.109375 584.414062 821.234375 584.167969 821.367188 583.90625 C 821.480469 583.679688 821.597656 583.449219 821.71875 583.222656 C 821.828125 583.027344 821.933594 582.835938 822.042969 582.648438 C 822.277344 582.238281 822.476562 581.882812 822.601562 581.582031 C 822.722656 581.285156 822.832031 580.894531 822.957031 580.4375 C 823.015625 580.230469 823.074219 580.023438 823.132812 579.816406 C 823.207031 579.5625 823.289062 579.316406 823.371094 579.074219 C 823.460938 578.792969 823.550781 578.527344 823.582031 578.359375 C 823.8125 577.210938 823.925781 576.066406 823.925781 574.960938 L 823.925781 480.453125 C 823.925781 470.914062 816.164062 463.15625 806.628906 463.15625 C 797.089844 463.15625 789.328125 470.914062 789.328125 480.453125 L 789.328125 523.613281 C 789.328125 525.21875 788.359375 526.667969 786.875 527.28125 C 785.390625 527.898438 783.683594 527.558594 782.546875 526.421875 L 700.519531 444.394531 C 693.773438 437.652344 682.796875 437.652344 676.050781 444.394531 L 631.609375 488.839844 C 630.054688 490.390625 627.542969 490.390625 625.992188 488.839844 L 552.988281 415.835938 C 549.71875 412.566406 545.375 410.765625 540.753906 410.765625 C 536.132812 410.765625 531.789062 412.566406 528.519531 415.835938 C 525.253906 419.101562 523.453125 423.445312 523.453125 428.066406 C 523.453125 432.6875 525.253906 437.03125 528.519531 440.296875 L 616.566406 528.34375 C 623.3125 535.089844 634.285156 535.089844 641.03125 528.34375 L 685.476562 483.902344 C 687.027344 482.351562 689.542969 482.351562 691.09375 483.902344 L 758.082031 550.882812 C 759.21875 552.019531 759.558594 553.730469 758.941406 555.214844 C 758.328125 556.699219 756.878906 557.664062 755.273438 557.664062 Z M 525.710938 413.027344 L 525.714844 413.027344 Z M 525.710938 413.027344 "/><path style=" stroke:none;fill-rule:nonzero;fill:#60ad2f;fill-opacity:1;" d="M 464.472656 928.230469 L 462.65625 867.042969 C 462.65625 854.101562 467.796875 841.691406 476.949219 832.539062 L 498.589844 810.898438 C 505.8125 803.671875 515.613281 799.613281 525.828125 799.613281 L 528.289062 799.613281 C 535.101562 799.613281 541.632812 796.910156 546.449219 792.09375 L 573.433594 765.109375 C 578.503906 760.039062 585.847656 758.632812 592.179688 760.886719 L 599.191406 678.921875 C 600.027344 669.125 608.226562 661.597656 618.058594 661.597656 C 628.515625 661.597656 636.992188 670.074219 636.992188 680.535156 L 636.992188 814.402344 C 636.992188 821.210938 634.285156 827.746094 629.46875 832.5625 L 562.792969 899.238281 C 557.976562 904.054688 555.273438 910.585938 555.273438 917.394531 L 555.273438 920.320312 Z M 464.472656 928.230469 "/><g clip-rule="nonzero" clip-path="url(#32250c43e7)"><path style=" stroke:none;fill-rule:nonzero;fill:#117f46;fill-opacity:1;" d="M 464.46875 932.199219 C 462.332031 932.199219 460.566406 930.5 460.503906 928.347656 L 458.6875 867.160156 C 458.683594 867.121094 458.683594 867.082031 458.683594 867.042969 C 458.683594 852.949219 464.171875 839.695312 474.140625 829.730469 L 495.78125 808.089844 C 503.808594 800.0625 514.476562 795.640625 525.828125 795.640625 L 528.289062 795.640625 C 534.089844 795.640625 539.542969 793.382812 543.640625 789.285156 L 570.625 762.300781 C 575.382812 757.542969 582.070312 755.292969 588.609375 756.015625 L 595.234375 678.582031 C 595.722656 672.851562 598.328125 667.550781 602.566406 663.660156 C 606.800781 659.769531 612.304688 657.625 618.058594 657.625 C 630.6875 657.625 640.964844 667.902344 640.964844 680.535156 L 640.964844 814.402344 C 640.964844 822.320312 637.882812 829.769531 632.28125 835.371094 L 565.605469 902.046875 C 561.503906 906.144531 559.246094 911.597656 559.246094 917.394531 L 559.246094 920.320312 C 559.246094 922.515625 557.46875 924.292969 555.273438 924.292969 C 553.078125 924.292969 551.300781 922.515625 551.300781 920.320312 L 551.300781 917.394531 C 551.300781 909.476562 554.386719 902.027344 559.988281 896.425781 L 626.660156 829.75 C 630.761719 825.652344 633.019531 820.199219 633.019531 814.402344 L 633.019531 680.535156 C 633.019531 672.285156 626.308594 665.570312 618.058594 665.570312 C 610.226562 665.570312 603.816406 671.457031 603.148438 679.257812 L 596.140625 761.222656 C 596.035156 762.449219 595.367188 763.558594 594.332031 764.226562 C 593.296875 764.890625 592.011719 765.039062 590.851562 764.628906 C 585.777344 762.824219 580.046875 764.117188 576.242188 767.917969 L 549.261719 794.902344 C 543.660156 800.503906 536.210938 803.585938 528.292969 803.585938 L 525.828125 803.585938 C 516.601562 803.585938 507.921875 807.179688 501.398438 813.707031 L 479.757812 835.347656 C 471.304688 843.800781 466.644531 855.035156 466.628906 866.984375 L 468.441406 928.109375 C 468.507812 930.304688 466.785156 932.132812 464.589844 932.199219 C 464.550781 932.199219 464.511719 932.199219 464.46875 932.199219 Z M 464.46875 932.199219 "/></g><path style=" stroke:none;fill-rule:nonzero;fill:#117f46;fill-opacity:1;" d="M 542.558594 850.804688 C 541.542969 850.804688 540.527344 850.414062 539.75 849.640625 C 538.199219 848.089844 538.199219 845.574219 539.75 844.023438 L 596.046875 787.726562 C 598.691406 785.082031 600.148438 781.5625 600.148438 777.824219 C 600.148438 774.082031 598.691406 770.566406 596.046875 767.921875 C 594.558594 766.433594 592.8125 765.324219 590.851562 764.628906 C 588.78125 763.890625 587.703125 761.621094 588.4375 759.554688 C 589.175781 757.488281 591.445312 756.410156 593.511719 757.144531 C 596.59375 758.238281 599.335938 759.976562 601.664062 762.300781 C 605.8125 766.449219 608.09375 771.960938 608.09375 777.824219 C 608.09375 783.6875 605.8125 789.199219 601.664062 793.34375 L 545.371094 849.640625 C 544.59375 850.414062 543.578125 850.804688 542.558594 850.804688 Z M 542.558594 850.804688 "/><path style=" stroke:none;fill-rule:nonzero;fill:#60ad2f;fill-opacity:1;" d="M 431.417969 928.230469 L 433.234375 867.042969 C 433.234375 854.101562 428.09375 841.691406 418.941406 832.539062 L 397.300781 810.898438 C 390.078125 803.671875 380.277344 799.613281 370.0625 799.613281 L 367.601562 799.613281 C 360.789062 799.613281 354.257812 796.910156 349.441406 792.09375 L 322.457031 765.109375 C 317.390625 760.039062 310.042969 758.632812 303.710938 760.886719 L 296.699219 678.921875 C 295.863281 669.125 287.664062 661.597656 277.835938 661.597656 C 267.375 661.597656 258.898438 670.074219 258.898438 680.535156 L 258.898438 814.402344 C 258.898438 821.210938 261.605469 827.746094 266.421875 832.5625 L 333.097656 899.238281 C 337.914062 904.054688 340.617188 910.585938 340.617188 917.394531 L 340.617188 920.320312 Z M 431.417969 928.230469 "/><g clip-rule="nonzero" clip-path="url(#3d2de39c50)"><path style=" stroke:none;fill-rule:nonzero;fill:#117f46;fill-opacity:1;" d="M 431.421875 932.199219 C 431.382812 932.199219 431.339844 932.199219 431.300781 932.199219 C 429.109375 932.132812 427.382812 930.304688 427.449219 928.109375 L 429.261719 866.984375 C 429.246094 855.035156 424.585938 843.800781 416.132812 835.347656 L 394.492188 813.707031 C 387.96875 807.179688 379.289062 803.585938 370.0625 803.585938 L 367.601562 803.585938 C 359.679688 803.585938 352.230469 800.503906 346.632812 794.902344 L 319.648438 767.917969 C 315.847656 764.117188 310.113281 762.824219 305.039062 764.628906 C 303.882812 765.039062 302.59375 764.890625 301.558594 764.226562 C 300.523438 763.558594 299.855469 762.449219 299.75 761.222656 L 292.742188 679.257812 C 292.074219 671.457031 285.664062 665.570312 277.832031 665.570312 C 269.582031 665.570312 262.871094 672.285156 262.871094 680.535156 L 262.871094 814.402344 C 262.871094 820.199219 265.128906 825.652344 269.230469 829.75 L 335.90625 896.425781 C 341.503906 902.027344 344.589844 909.476562 344.589844 917.394531 L 344.589844 920.320312 C 344.589844 922.515625 342.8125 924.292969 340.617188 924.292969 C 338.425781 924.292969 336.644531 922.515625 336.644531 920.320312 L 336.644531 917.394531 C 336.644531 911.597656 334.386719 906.144531 330.289062 902.046875 L 263.613281 835.371094 C 258.011719 829.769531 254.925781 822.320312 254.925781 814.402344 L 254.925781 680.535156 C 254.925781 667.902344 265.203125 657.625 277.832031 657.625 C 283.585938 657.625 289.089844 659.769531 293.324219 663.660156 C 297.5625 667.550781 300.167969 672.851562 300.65625 678.582031 L 307.28125 756.015625 C 313.824219 755.292969 320.507812 757.542969 325.265625 762.300781 L 352.25 789.285156 C 356.351562 793.382812 361.800781 795.644531 367.601562 795.644531 L 370.0625 795.644531 C 381.414062 795.644531 392.082031 800.0625 400.109375 808.089844 L 421.75 829.730469 C 431.71875 839.695312 437.207031 852.949219 437.207031 867.042969 C 437.207031 867.082031 437.207031 867.121094 437.203125 867.160156 L 435.390625 928.347656 C 435.324219 930.5 433.558594 932.199219 431.421875 932.199219 Z M 431.421875 932.199219 "/></g><path style=" stroke:none;fill-rule:nonzero;fill:#117f46;fill-opacity:1;" d="M 353.332031 850.804688 C 352.316406 850.804688 351.296875 850.414062 350.523438 849.640625 L 294.226562 793.34375 C 285.667969 784.785156 285.667969 770.859375 294.226562 762.300781 C 296.554688 759.972656 299.296875 758.238281 302.378906 757.140625 C 304.445312 756.40625 306.71875 757.488281 307.453125 759.554688 C 308.1875 761.621094 307.109375 763.890625 305.042969 764.628906 C 303.078125 765.324219 301.332031 766.433594 299.84375 767.917969 C 294.382812 773.378906 294.382812 782.265625 299.84375 787.726562 L 356.140625 844.023438 C 357.691406 845.574219 357.691406 848.089844 356.140625 849.640625 C 355.363281 850.414062 354.347656 850.804688 353.332031 850.804688 Z M 353.332031 850.804688 "/><path style=" stroke:none;fill-rule:nonzero;fill:#ffe161;fill-opacity:1;" d="M 525.609375 621.707031 C 526.734375 622.832031 527.832031 623.980469 528.898438 625.160156 C 529.964844 626.339844 531.003906 627.542969 532.011719 628.773438 C 533.023438 630 534 631.253906 534.949219 632.53125 C 535.894531 633.808594 536.808594 635.109375 537.695312 636.429688 C 538.578125 637.753906 539.429688 639.097656 540.246094 640.460938 C 541.0625 641.824219 541.847656 643.207031 542.597656 644.609375 C 543.347656 646.011719 544.0625 647.433594 544.742188 648.871094 C 545.421875 650.308594 546.066406 651.761719 546.671875 653.230469 C 547.28125 654.699219 547.855469 656.183594 548.390625 657.679688 C 548.925781 659.175781 549.425781 660.6875 549.886719 662.207031 C 550.347656 663.730469 550.773438 665.261719 551.160156 666.804688 C 551.542969 668.347656 551.894531 669.898438 552.203125 671.457031 C 552.511719 673.015625 552.785156 674.582031 553.019531 676.15625 C 553.253906 677.730469 553.445312 679.308594 553.601562 680.890625 C 553.757812 682.472656 553.875 684.058594 553.953125 685.644531 C 554.03125 687.234375 554.070312 688.824219 554.070312 690.414062 C 554.070312 692.003906 554.03125 693.59375 553.953125 695.183594 C 553.875 696.769531 553.757812 698.355469 553.601562 699.9375 C 553.445312 701.519531 553.253906 703.097656 553.019531 704.671875 C 552.785156 706.246094 552.515625 707.8125 552.203125 709.371094 C 551.894531 710.929688 551.546875 712.480469 551.160156 714.023438 C 550.773438 715.566406 550.347656 717.097656 549.886719 718.621094 C 549.425781 720.140625 548.925781 721.652344 548.390625 723.148438 C 547.855469 724.644531 547.285156 726.128906 546.675781 727.597656 C 546.066406 729.066406 545.421875 730.519531 544.742188 731.957031 C 544.0625 733.394531 543.347656 734.816406 542.597656 736.21875 C 541.847656 737.621094 541.066406 739.003906 540.246094 740.367188 C 539.429688 741.734375 538.578125 743.074219 537.695312 744.398438 C 536.8125 745.71875 535.898438 747.019531 534.949219 748.296875 C 534.003906 749.574219 533.023438 750.828125 532.015625 752.058594 C 531.007812 753.285156 529.96875 754.488281 528.902344 755.667969 C 527.832031 756.847656 526.738281 758 525.613281 759.121094 C 524.488281 760.246094 523.335938 761.34375 522.15625 762.410156 C 520.980469 763.480469 519.777344 764.519531 518.546875 765.527344 C 517.316406 766.535156 516.0625 767.511719 514.789062 768.460938 C 513.511719 769.40625 512.210938 770.324219 510.886719 771.207031 C 509.566406 772.089844 508.222656 772.941406 506.859375 773.757812 C 505.496094 774.574219 504.113281 775.359375 502.710938 776.109375 C 501.304688 776.859375 499.886719 777.574219 498.449219 778.253906 C 497.011719 778.933594 495.558594 779.578125 494.089844 780.1875 C 492.621094 780.796875 491.136719 781.367188 489.640625 781.902344 C 488.140625 782.4375 486.632812 782.9375 485.109375 783.398438 C 483.589844 783.859375 482.058594 784.285156 480.515625 784.671875 C 478.972656 785.058594 477.421875 785.40625 475.859375 785.714844 C 474.300781 786.027344 472.734375 786.296875 471.164062 786.53125 C 469.589844 786.765625 468.011719 786.960938 466.429688 787.117188 C 464.847656 787.269531 463.261719 787.386719 461.671875 787.464844 C 460.085938 787.542969 458.496094 787.582031 456.90625 787.582031 C 455.316406 787.582031 453.726562 787.542969 452.136719 787.464844 C 450.546875 787.386719 448.964844 787.273438 447.378906 787.117188 C 445.796875 786.960938 444.21875 786.765625 442.648438 786.53125 C 441.074219 786.300781 439.507812 786.027344 437.949219 785.71875 C 436.386719 785.40625 434.835938 785.058594 433.292969 784.671875 C 431.753906 784.285156 430.21875 783.863281 428.699219 783.398438 C 427.175781 782.9375 425.667969 782.441406 424.167969 781.902344 C 422.671875 781.367188 421.1875 780.796875 419.71875 780.1875 C 418.25 779.578125 416.796875 778.933594 415.359375 778.253906 C 413.921875 777.574219 412.503906 776.859375 411.101562 776.109375 C 409.699219 775.359375 408.3125 774.578125 406.949219 773.761719 C 405.585938 772.941406 404.242188 772.09375 402.921875 771.207031 C 401.597656 770.324219 400.296875 769.410156 399.023438 768.460938 C 397.746094 767.515625 396.492188 766.539062 395.261719 765.527344 C 394.03125 764.519531 392.828125 763.480469 391.648438 762.414062 C 390.472656 761.34375 389.320312 760.25 388.195312 759.125 C 387.070312 758 385.976562 756.847656 384.90625 755.671875 C 383.839844 754.492188 382.800781 753.289062 381.792969 752.058594 C 380.785156 750.832031 379.804688 749.578125 378.859375 748.300781 C 377.910156 747.023438 376.996094 745.722656 376.113281 744.402344 C 375.226562 743.078125 374.378906 741.734375 373.558594 740.371094 C 372.742188 739.007812 371.960938 737.625 371.210938 736.222656 C 370.460938 734.820312 369.746094 733.398438 369.066406 731.960938 C 368.386719 730.523438 367.742188 729.070312 367.132812 727.601562 C 366.523438 726.132812 365.953125 724.648438 365.414062 723.152344 C 364.878906 721.65625 364.382812 720.144531 363.917969 718.625 C 363.457031 717.101562 363.035156 715.570312 362.648438 714.027344 C 362.261719 712.484375 361.914062 710.933594 361.601562 709.375 C 361.292969 707.8125 361.019531 706.246094 360.785156 704.675781 C 360.554688 703.101562 360.359375 701.523438 360.203125 699.941406 C 360.046875 698.359375 359.929688 696.773438 359.851562 695.183594 C 359.773438 693.597656 359.734375 692.007812 359.734375 690.417969 C 359.734375 688.828125 359.773438 687.238281 359.851562 685.648438 C 359.929688 684.0625 360.046875 682.476562 360.203125 680.894531 C 360.359375 679.3125 360.554688 677.734375 360.785156 676.160156 C 361.019531 674.585938 361.292969 673.019531 361.601562 671.460938 C 361.910156 669.902344 362.261719 668.351562 362.648438 666.808594 C 363.035156 665.265625 363.457031 663.734375 363.917969 662.210938 C 364.378906 660.6875 364.878906 659.179688 365.414062 657.683594 C 365.949219 656.183594 366.523438 654.703125 367.132812 653.234375 C 367.738281 651.761719 368.382812 650.308594 369.0625 648.871094 C 369.742188 647.433594 370.457031 646.015625 371.207031 644.613281 C 371.957031 643.210938 372.742188 641.828125 373.558594 640.464844 C 374.375 639.097656 375.226562 637.757812 376.109375 636.433594 C 376.992188 635.113281 377.910156 633.8125 378.855469 632.535156 C 379.804688 631.257812 380.78125 630.003906 381.789062 628.773438 C 382.800781 627.546875 383.835938 626.339844 384.90625 625.164062 C 385.972656 623.984375 387.070312 622.832031 388.195312 621.710938 C 389.316406 620.585938 390.46875 619.488281 391.648438 618.421875 C 392.824219 617.351562 394.03125 616.3125 395.257812 615.304688 C 396.488281 614.296875 397.742188 613.316406 399.019531 612.371094 C 400.296875 611.421875 401.597656 610.507812 402.917969 609.625 C 404.238281 608.742188 405.582031 607.890625 406.949219 607.074219 C 408.3125 606.253906 409.695312 605.472656 411.097656 604.722656 C 412.5 603.972656 413.917969 603.257812 415.355469 602.578125 C 416.792969 601.898438 418.246094 601.253906 419.71875 600.644531 C 421.1875 600.035156 422.667969 599.464844 424.167969 598.929688 C 425.664062 598.394531 427.171875 597.894531 428.695312 597.433594 C 430.214844 596.972656 431.75 596.546875 433.292969 596.160156 C 434.832031 595.773438 436.386719 595.425781 437.945312 595.117188 C 439.503906 594.804688 441.070312 594.535156 442.644531 594.300781 C 444.214844 594.066406 445.792969 593.871094 447.378906 593.714844 C 448.960938 593.558594 450.546875 593.441406 452.132812 593.363281 C 453.722656 593.285156 455.3125 593.246094 456.902344 593.246094 C 458.492188 593.246094 460.082031 593.285156 461.667969 593.363281 C 463.257812 593.441406 464.84375 593.558594 466.425781 593.714844 C 468.007812 593.871094 469.585938 594.066406 471.160156 594.300781 C 472.730469 594.53125 474.296875 594.804688 475.859375 595.113281 C 477.417969 595.425781 478.96875 595.773438 480.511719 596.160156 C 482.054688 596.546875 483.585938 596.96875 485.109375 597.429688 C 486.628906 597.894531 488.140625 598.390625 489.636719 598.925781 C 491.132812 599.464844 492.617188 600.035156 494.085938 600.644531 C 495.554688 601.253906 497.007812 601.898438 498.445312 602.578125 C 499.882812 603.257812 501.304688 603.972656 502.707031 604.71875 C 504.109375 605.46875 505.492188 606.253906 506.855469 607.070312 C 508.21875 607.890625 509.5625 608.738281 510.886719 609.621094 C 512.207031 610.507812 513.507812 611.421875 514.785156 612.367188 C 516.0625 613.316406 517.316406 614.292969 518.542969 615.304688 C 519.773438 616.3125 520.976562 617.351562 522.15625 618.417969 C 523.332031 619.484375 524.484375 620.582031 525.609375 621.707031 Z M 525.609375 621.707031 "/><path style=" stroke:none;fill-rule:nonzero;fill:#117f46;fill-opacity:1;" d="M 456.914062 791.558594 C 429.898438 791.558594 404.5 781.035156 385.398438 761.933594 C 366.292969 742.832031 355.773438 717.433594 355.773438 690.417969 C 355.773438 663.402344 366.292969 638.003906 385.398438 618.898438 C 404.5 599.796875 429.898438 589.277344 456.914062 589.277344 C 483.929688 589.277344 509.328125 599.796875 528.429688 618.898438 C 547.535156 638.003906 558.054688 663.402344 558.054688 690.417969 C 558.054688 717.433594 547.535156 742.832031 528.429688 761.933594 C 509.328125 781.035156 483.929688 791.558594 456.914062 791.558594 Z M 456.914062 597.222656 C 405.527344 597.222656 363.71875 639.027344 363.71875 690.417969 C 363.71875 741.804688 405.527344 783.613281 456.914062 783.613281 C 508.300781 783.613281 550.109375 741.804688 550.109375 690.417969 C 550.109375 639.027344 508.300781 597.222656 456.914062 597.222656 Z M 456.914062 597.222656 "/><path style=" stroke:none;fill-rule:nonzero;fill:#60ad2f;fill-opacity:1;" d="M 458.5 681.710938 L 468.871094 612.304688 L 412.066406 703.886719 L 455.324219 699.125 L 444.957031 768.53125 L 501.757812 676.949219 Z M 458.5 681.710938 "/><path style=" stroke:none;fill-rule:nonzero;fill:#117f46;fill-opacity:1;" d="M 444.953125 772.503906 C 444.5 772.503906 444.035156 772.425781 443.585938 772.261719 C 441.816406 771.609375 440.75 769.808594 441.027344 767.945312 L 450.636719 703.636719 L 412.503906 707.835938 C 410.992188 708 409.519531 707.289062 408.707031 706.003906 C 407.898438 704.71875 407.890625 703.082031 408.691406 701.792969 L 465.496094 610.210938 C 466.488281 608.609375 468.472656 607.925781 470.242188 608.574219 C 472.007812 609.222656 473.078125 611.027344 472.800781 612.890625 L 463.191406 677.195312 L 501.324219 673 C 502.835938 672.832031 504.308594 673.542969 505.121094 674.828125 C 505.929688 676.113281 505.9375 677.75 505.136719 679.042969 L 448.332031 770.625 C 447.589844 771.820312 446.296875 772.503906 444.953125 772.503906 Z M 455.324219 695.152344 C 456.398438 695.152344 457.433594 695.589844 458.1875 696.371094 C 459.042969 697.257812 459.4375 698.492188 459.253906 699.710938 L 451.730469 750.074219 L 494.082031 681.789062 L 458.9375 685.660156 C 457.710938 685.792969 456.492188 685.351562 455.640625 684.464844 C 454.785156 683.574219 454.390625 682.339844 454.574219 681.121094 L 462.097656 630.761719 L 419.746094 699.042969 L 454.890625 695.175781 C 455.035156 695.160156 455.183594 695.152344 455.324219 695.152344 Z M 455.324219 695.152344 "/><path style=" stroke:none;fill-rule:nonzero;fill:#5be894;fill-opacity:1;" d="M 415.167969 639.546875 C 415.167969 666.855469 393.03125 688.992188 365.722656 688.992188 C 338.410156 688.992188 316.273438 666.855469 316.273438 639.546875 C 316.273438 603.8125 347.832031 556.054688 360.523438 538.285156 C 363.070312 534.722656 368.371094 534.722656 370.917969 538.285156 C 383.613281 556.054688 415.167969 603.8125 415.167969 639.546875 Z M 415.167969 639.546875 "/><path style=" stroke:none;fill-rule:nonzero;fill:#117f46;fill-opacity:1;" d="M 365.722656 692.964844 C 336.265625 692.964844 312.300781 669.003906 312.300781 639.546875 C 312.300781 602.902344 343.765625 554.910156 357.292969 535.976562 C 359.234375 533.261719 362.382812 531.640625 365.722656 531.640625 C 369.058594 531.640625 372.210938 533.261719 374.148438 535.976562 C 387.675781 554.910156 419.140625 602.902344 419.140625 639.546875 C 419.140625 669 395.175781 692.964844 365.722656 692.964844 Z M 365.722656 539.585938 C 365.347656 539.585938 364.410156 539.683594 363.757812 540.597656 C 350.675781 558.90625 320.246094 605.199219 320.246094 639.546875 C 320.246094 664.621094 340.644531 685.019531 365.722656 685.019531 C 390.796875 685.019531 411.195312 664.621094 411.195312 639.546875 C 411.195312 605.199219 380.765625 558.90625 367.683594 540.597656 C 367.035156 539.683594 366.09375 539.585938 365.722656 539.585938 Z M 365.722656 539.585938 "/><path style=" stroke:none;fill-rule:nonzero;fill:#60ad2f;fill-opacity:1;" d="M 115.925781 314.207031 L 115.925781 509.367188 L 346.652344 509.367188 L 346.652344 314.234375 L 231.277344 210.394531 Z M 115.925781 314.207031 "/><path style=" stroke:none;fill-rule:nonzero;fill:#117f46;fill-opacity:1;" d="M 346.652344 513.339844 L 115.925781 513.339844 C 113.730469 513.339844 111.953125 511.5625 111.953125 509.367188 L 111.953125 314.210938 C 111.953125 313.082031 112.433594 312.007812 113.269531 311.257812 L 228.617188 207.441406 C 230.128906 206.082031 232.421875 206.082031 233.933594 207.441406 L 349.308594 311.28125 C 350.144531 312.035156 350.625 313.109375 350.625 314.234375 L 350.625 509.367188 C 350.625 511.5625 348.84375 513.339844 346.652344 513.339844 Z M 119.898438 505.394531 L 342.679688 505.394531 L 342.679688 316.003906 L 231.277344 215.738281 L 119.898438 315.976562 Z M 119.898438 505.394531 "/><path style=" stroke:none;fill-rule:nonzero;fill:#ffe161;fill-opacity:1;" d="M 200.167969 296.132812 L 262.390625 296.132812 L 262.390625 337.816406 L 200.167969 337.816406 Z M 200.167969 296.132812 "/><path style=" stroke:none;fill-rule:nonzero;fill:#117f46;fill-opacity:1;" d="M 262.390625 341.789062 L 200.167969 341.789062 C 197.972656 341.789062 196.195312 340.011719 196.195312 337.816406 L 196.195312 296.132812 C 196.195312 293.9375 197.972656 292.160156 200.167969 292.160156 L 262.390625 292.160156 C 264.582031 292.160156 266.363281 293.9375 266.363281 296.132812 L 266.363281 337.816406 C 266.363281 340.007812 264.582031 341.789062 262.390625 341.789062 Z M 204.140625 333.84375 L 258.417969 333.84375 L 258.417969 300.105469 L 204.140625 300.105469 Z M 204.140625 333.84375 "/><path style=" stroke:none;fill-rule:nonzero;fill:#117f46;fill-opacity:1;" d="M 231.277344 341.789062 C 229.085938 341.789062 227.304688 340.011719 227.304688 337.816406 L 227.304688 296.132812 C 227.304688 293.9375 229.085938 292.160156 231.277344 292.160156 C 233.472656 292.160156 235.25 293.9375 235.25 296.132812 L 235.25 337.816406 C 235.25 340.007812 233.472656 341.789062 231.277344 341.789062 Z M 231.277344 341.789062 "/><path style=" stroke:none;fill-rule:nonzero;fill:#117f46;fill-opacity:1;" d="M 367.328125 336.816406 C 366.378906 336.816406 365.429688 336.480469 364.671875 335.796875 L 343.992188 317.1875 C 342.363281 315.71875 342.230469 313.207031 343.699219 311.578125 C 345.164062 309.945312 347.675781 309.8125 349.308594 311.28125 L 369.988281 329.890625 C 371.617188 331.359375 371.75 333.871094 370.28125 335.503906 C 369.496094 336.371094 368.414062 336.816406 367.328125 336.816406 Z M 367.328125 336.816406 "/><path style=" stroke:none;fill-rule:nonzero;fill:#117f46;fill-opacity:1;" d="M 95.199219 336.816406 C 94.113281 336.816406 93.027344 336.371094 92.242188 335.5 C 90.777344 333.867188 90.910156 331.355469 92.542969 329.890625 L 113.269531 311.253906 C 114.902344 309.789062 117.414062 309.921875 118.878906 311.554688 C 120.347656 313.183594 120.214844 315.695312 118.582031 317.164062 L 97.855469 335.800781 C 97.09375 336.480469 96.144531 336.816406 95.199219 336.816406 Z M 95.199219 336.816406 "/><path style=" stroke:none;fill-rule:nonzero;fill:#117f46;fill-opacity:1;" d="M 87.828125 433.757812 C 87.367188 433.757812 86.898438 433.675781 86.441406 433.507812 C 84.386719 432.742188 83.339844 430.453125 84.105469 428.398438 C 84.441406 427.496094 92.371094 406.269531 96.792969 399.59375 C 103.066406 390.121094 119.160156 376.105469 133.789062 376.105469 L 142.105469 376.105469 C 144.300781 376.105469 146.078125 377.886719 146.078125 380.078125 C 146.078125 382.273438 144.300781 384.050781 142.105469 384.050781 L 133.789062 384.050781 C 122.730469 384.050781 108.808594 395.835938 103.414062 403.980469 C 100.160156 408.894531 93.75 425.273438 91.550781 431.167969 C 90.957031 432.769531 89.441406 433.757812 87.828125 433.757812 Z M 87.828125 433.757812 "/><path style=" stroke:none;fill-rule:nonzero;fill:#117f46;fill-opacity:1;" d="M 255.246094 433.757812 C 253.628906 433.757812 252.109375 432.761719 251.519531 431.15625 C 249.363281 425.292969 243.0625 409.007812 239.855469 404.117188 C 234.472656 395.914062 220.558594 384.050781 209.464844 384.050781 L 200.96875 384.050781 C 198.777344 384.050781 196.996094 382.273438 196.996094 380.078125 C 196.996094 377.886719 198.777344 376.105469 200.96875 376.105469 L 209.464844 376.105469 C 224.144531 376.105469 240.238281 390.222656 246.496094 399.761719 C 250.859375 406.410156 258.644531 427.515625 258.976562 428.414062 C 259.734375 430.472656 258.679688 432.753906 256.617188 433.511719 C 256.167969 433.675781 255.703125 433.757812 255.246094 433.757812 Z M 255.246094 433.757812 "/><path style=" stroke:none;fill-rule:nonzero;fill:#5be894;fill-opacity:1;" d="M 168.636719 371.15625 C 168.636719 371.707031 168.609375 372.257812 168.558594 372.804688 C 168.503906 373.351562 168.421875 373.898438 168.316406 374.4375 C 168.207031 374.980469 168.074219 375.515625 167.914062 376.042969 C 167.753906 376.570312 167.566406 377.085938 167.355469 377.597656 C 167.144531 378.105469 166.910156 378.605469 166.648438 379.089844 C 166.390625 379.578125 166.105469 380.050781 165.800781 380.507812 C 165.496094 380.964844 165.167969 381.40625 164.816406 381.835938 C 164.46875 382.261719 164.097656 382.667969 163.707031 383.058594 C 163.316406 383.449219 162.910156 383.816406 162.484375 384.167969 C 162.058594 384.519531 161.613281 384.847656 161.15625 385.152344 C 160.699219 385.457031 160.226562 385.742188 159.738281 386 C 159.253906 386.261719 158.753906 386.496094 158.246094 386.707031 C 157.734375 386.917969 157.21875 387.105469 156.691406 387.265625 C 156.160156 387.425781 155.628906 387.558594 155.085938 387.664062 C 154.546875 387.773438 154 387.855469 153.453125 387.910156 C 152.902344 387.960938 152.355469 387.988281 151.800781 387.988281 C 151.25 387.988281 150.703125 387.960938 150.152344 387.910156 C 149.605469 387.855469 149.058594 387.773438 148.519531 387.664062 C 147.976562 387.558594 147.441406 387.425781 146.914062 387.265625 C 146.386719 387.105469 145.871094 386.917969 145.359375 386.707031 C 144.851562 386.496094 144.351562 386.261719 143.867188 386 C 143.378906 385.742188 142.90625 385.457031 142.449219 385.152344 C 141.992188 384.847656 141.546875 384.519531 141.121094 384.167969 C 140.695312 383.816406 140.289062 383.449219 139.898438 383.058594 C 139.507812 382.667969 139.136719 382.261719 138.789062 381.835938 C 138.4375 381.40625 138.109375 380.964844 137.804688 380.507812 C 137.5 380.050781 137.214844 379.578125 136.957031 379.089844 C 136.695312 378.605469 136.460938 378.105469 136.25 377.597656 C 136.039062 377.085938 135.851562 376.570312 135.691406 376.042969 C 135.53125 375.515625 135.398438 374.980469 135.289062 374.4375 C 135.183594 373.898438 135.101562 373.351562 135.046875 372.804688 C 134.996094 372.257812 134.96875 371.707031 134.96875 371.15625 C 134.96875 370.601562 134.996094 370.054688 135.046875 369.503906 C 135.101562 368.957031 135.183594 368.410156 135.289062 367.871094 C 135.398438 367.328125 135.53125 366.796875 135.691406 366.269531 C 135.851562 365.738281 136.039062 365.222656 136.25 364.710938 C 136.460938 364.203125 136.695312 363.707031 136.957031 363.21875 C 137.214844 362.734375 137.5 362.261719 137.804688 361.800781 C 138.109375 361.34375 138.4375 360.902344 138.789062 360.476562 C 139.136719 360.046875 139.507812 359.640625 139.898438 359.25 C 140.289062 358.859375 140.695312 358.492188 141.121094 358.140625 C 141.546875 357.792969 141.992188 357.464844 142.449219 357.15625 C 142.90625 356.851562 143.378906 356.566406 143.867188 356.308594 C 144.351562 356.046875 144.851562 355.8125 145.359375 355.601562 C 145.871094 355.390625 146.386719 355.203125 146.914062 355.046875 C 147.441406 354.886719 147.976562 354.75 148.519531 354.644531 C 149.058594 354.535156 149.605469 354.457031 150.152344 354.402344 C 150.703125 354.347656 151.25 354.320312 151.800781 354.320312 C 152.355469 354.320312 152.902344 354.347656 153.453125 354.402344 C 154 354.457031 154.546875 354.535156 155.085938 354.644531 C 155.628906 354.75 156.160156 354.886719 156.691406 355.046875 C 157.21875 355.203125 157.734375 355.390625 158.246094 355.601562 C 158.753906 355.8125 159.253906 356.046875 159.738281 356.308594 C 160.226562 356.566406 160.699219 356.851562 161.15625 357.15625 C 161.613281 357.464844 162.058594 357.792969 162.484375 358.140625 C 162.910156 358.492188 163.316406 358.859375 163.707031 359.25 C 164.097656 359.640625 164.46875 360.046875 164.816406 360.476562 C 165.167969 360.902344 165.496094 361.34375 165.800781 361.800781 C 166.105469 362.261719 166.390625 362.734375 166.648438 363.21875 C 166.910156 363.707031 167.144531 364.203125 167.355469 364.710938 C 167.566406 365.222656 167.753906 365.738281 167.914062 366.269531 C 168.074219 366.796875 168.207031 367.328125 168.316406 367.871094 C 168.421875 368.410156 168.503906 368.957031 168.558594 369.503906 C 168.609375 370.054688 168.636719 370.601562 168.636719 371.15625 Z M 168.636719 371.15625 "/><path style=" stroke:none;fill-rule:nonzero;fill:#117f46;fill-opacity:1;" d="M 154.695312 389.71875 C 143.222656 389.71875 133.890625 380.386719 133.890625 368.914062 C 133.890625 357.441406 143.222656 348.105469 154.695312 348.105469 C 166.171875 348.105469 175.503906 357.441406 175.503906 368.914062 C 175.503906 380.386719 166.171875 389.71875 154.695312 389.71875 Z M 154.695312 356.050781 C 147.605469 356.050781 141.832031 361.820312 141.832031 368.914062 C 141.832031 376.003906 147.605469 381.773438 154.695312 381.773438 C 161.789062 381.773438 167.558594 376.003906 167.558594 368.914062 C 167.558594 361.820312 161.789062 356.050781 154.695312 356.050781 Z M 154.695312 356.050781 "/><path style=" stroke:none;fill-rule:nonzero;fill:#5be894;fill-opacity:1;" d="M 202.339844 371.304688 C 202.339844 371.855469 202.316406 372.40625 202.261719 372.953125 C 202.207031 373.503906 202.125 374.046875 202.019531 374.589844 C 201.910156 375.128906 201.777344 375.664062 201.617188 376.191406 C 201.457031 376.71875 201.269531 377.238281 201.058594 377.746094 C 200.847656 378.253906 200.613281 378.753906 200.355469 379.238281 C 200.09375 379.726562 199.8125 380.199219 199.503906 380.65625 C 199.199219 381.113281 198.871094 381.558594 198.519531 381.984375 C 198.171875 382.410156 197.800781 382.816406 197.410156 383.207031 C 197.019531 383.597656 196.613281 383.96875 196.1875 384.316406 C 195.761719 384.667969 195.316406 384.996094 194.859375 385.300781 C 194.402344 385.609375 193.929688 385.890625 193.441406 386.152344 C 192.957031 386.410156 192.457031 386.644531 191.949219 386.855469 C 191.441406 387.066406 190.921875 387.253906 190.394531 387.414062 C 189.867188 387.574219 189.332031 387.707031 188.789062 387.816406 C 188.25 387.921875 187.707031 388.003906 187.15625 388.058594 C 186.609375 388.113281 186.058594 388.136719 185.507812 388.136719 C 184.953125 388.136719 184.40625 388.113281 183.855469 388.058594 C 183.308594 388.003906 182.761719 387.921875 182.222656 387.816406 C 181.679688 387.707031 181.148438 387.574219 180.621094 387.414062 C 180.089844 387.253906 179.574219 387.066406 179.0625 386.855469 C 178.554688 386.644531 178.054688 386.410156 177.570312 386.152344 C 177.085938 385.890625 176.613281 385.609375 176.152344 385.300781 C 175.695312 384.996094 175.253906 384.667969 174.828125 384.316406 C 174.398438 383.96875 173.992188 383.597656 173.601562 383.207031 C 173.210938 382.816406 172.84375 382.410156 172.492188 381.984375 C 172.144531 381.558594 171.816406 381.113281 171.507812 380.65625 C 171.203125 380.199219 170.917969 379.726562 170.660156 379.238281 C 170.398438 378.753906 170.164062 378.253906 169.953125 377.746094 C 169.742188 377.238281 169.554688 376.71875 169.394531 376.191406 C 169.234375 375.664062 169.101562 375.128906 168.996094 374.589844 C 168.886719 374.046875 168.804688 373.503906 168.753906 372.953125 C 168.699219 372.40625 168.671875 371.855469 168.671875 371.304688 C 168.671875 370.753906 168.699219 370.203125 168.753906 369.652344 C 168.804688 369.105469 168.886719 368.558594 168.996094 368.019531 C 169.101562 367.480469 169.234375 366.945312 169.394531 366.417969 C 169.554688 365.890625 169.742188 365.371094 169.953125 364.863281 C 170.164062 364.351562 170.398438 363.855469 170.660156 363.367188 C 170.917969 362.882812 171.203125 362.410156 171.507812 361.949219 C 171.816406 361.492188 172.144531 361.050781 172.492188 360.625 C 172.84375 360.199219 173.210938 359.789062 173.601562 359.398438 C 173.992188 359.011719 174.398438 358.640625 174.828125 358.289062 C 175.253906 357.941406 175.695312 357.613281 176.152344 357.304688 C 176.613281 357 177.085938 356.71875 177.570312 356.457031 C 178.054688 356.195312 178.554688 355.960938 179.0625 355.75 C 179.574219 355.539062 180.089844 355.355469 180.621094 355.195312 C 181.148438 355.035156 181.679688 354.898438 182.222656 354.792969 C 182.761719 354.683594 183.308594 354.605469 183.855469 354.550781 C 184.40625 354.496094 184.953125 354.46875 185.507812 354.46875 C 186.058594 354.46875 186.609375 354.496094 187.15625 354.550781 C 187.707031 354.605469 188.25 354.683594 188.789062 354.792969 C 189.332031 354.902344 189.867188 355.035156 190.394531 355.195312 C 190.921875 355.355469 191.441406 355.539062 191.949219 355.75 C 192.457031 355.960938 192.957031 356.195312 193.441406 356.457031 C 193.929688 356.71875 194.402344 357 194.859375 357.304688 C 195.316406 357.613281 195.761719 357.941406 196.1875 358.289062 C 196.613281 358.640625 197.019531 359.011719 197.410156 359.398438 C 197.800781 359.789062 198.171875 360.199219 198.519531 360.625 C 198.871094 361.050781 199.199219 361.492188 199.503906 361.949219 C 199.8125 362.410156 200.09375 362.882812 200.355469 363.367188 C 200.613281 363.855469 200.847656 364.351562 201.058594 364.863281 C 201.269531 365.371094 201.457031 365.890625 201.617188 366.417969 C 201.777344 366.945312 201.910156 367.480469 202.019531 368.019531 C 202.125 368.558594 202.207031 369.105469 202.261719 369.652344 C 202.316406 370.203125 202.339844 370.753906 202.339844 371.304688 Z M 202.339844 371.304688 "/><path style=" stroke:none;fill-rule:nonzero;fill:#117f46;fill-opacity:1;" d="M 188.367188 389.71875 C 176.894531 389.71875 167.558594 380.386719 167.558594 368.914062 C 167.558594 357.441406 176.894531 348.105469 188.367188 348.105469 C 199.839844 348.105469 209.175781 357.441406 209.175781 368.914062 C 209.175781 380.386719 199.839844 389.71875 188.367188 389.71875 Z M 188.367188 356.050781 C 181.273438 356.050781 175.503906 361.820312 175.503906 368.914062 C 175.503906 376.003906 181.273438 381.773438 188.367188 381.773438 C 195.460938 381.773438 201.230469 376.003906 201.230469 368.914062 C 201.230469 361.820312 195.460938 356.050781 188.367188 356.050781 Z M 188.367188 356.050781 "/><path style=" stroke:none;fill-rule:nonzero;fill:#ffe161;fill-opacity:1;" d="M 109.003906 535.613281 C 86.164062 535.613281 70.84375 507.105469 80.742188 482.488281 C 80.808594 482.320312 80.878906 482.148438 80.949219 481.976562 C 85.464844 471.015625 102.871094 456.65625 105.890625 439.519531 C 113.226562 397.851562 138.445312 398.332031 138.445312 398.332031 L 204.621094 398.332031 C 204.621094 398.332031 229.839844 397.851562 237.175781 439.519531 C 240.195312 456.65625 257.601562 471.015625 262.117188 481.976562 C 262.1875 482.148438 262.257812 482.316406 262.324219 482.488281 C 272.222656 507.105469 256.902344 535.613281 234.0625 535.613281 Z M 109.003906 535.613281 "/><path style=" stroke:none;fill-rule:nonzero;fill:#117f46;fill-opacity:1;" d="M 234.058594 539.585938 L 109.003906 539.585938 C 98.160156 539.585938 88.089844 533.886719 81.375 523.945312 C 73.027344 511.59375 71.371094 495.140625 77.054688 481.007812 C 77.128906 480.824219 77.203125 480.644531 77.277344 480.464844 C 79.210938 475.773438 83.058594 470.777344 87.136719 465.488281 C 93.300781 457.496094 100.285156 448.4375 101.976562 438.828125 C 105.207031 420.476562 112.15625 407.433594 122.628906 400.054688 C 130.453125 394.542969 137.542969 394.359375 138.4375 394.359375 C 138.4375 394.359375 138.441406 394.359375 138.445312 394.359375 L 204.621094 394.359375 C 204.625 394.359375 204.625 394.359375 204.628906 394.359375 C 205.519531 394.359375 212.609375 394.539062 220.433594 400.054688 C 230.910156 407.433594 237.855469 420.480469 241.089844 438.828125 C 242.78125 448.4375 249.765625 457.496094 255.925781 465.488281 C 260.003906 470.777344 263.855469 475.773438 265.789062 480.464844 C 265.863281 480.644531 265.9375 480.824219 266.007812 481.007812 C 271.691406 495.140625 270.039062 511.59375 261.691406 523.945312 C 254.972656 533.886719 244.902344 539.585938 234.058594 539.585938 Z M 138.382812 402.304688 C 137.953125 402.308594 132.769531 402.457031 126.765625 406.863281 C 118.429688 412.984375 112.5625 424.515625 109.800781 440.207031 C 107.769531 451.742188 100.152344 461.621094 93.429688 470.339844 C 89.6875 475.195312 86.148438 479.78125 84.621094 483.492188 C 84.554688 483.652344 84.488281 483.8125 84.425781 483.972656 C 79.714844 495.6875 81.066406 509.300781 87.957031 519.496094 C 93.171875 527.214844 100.84375 531.640625 109.003906 531.640625 L 234.058594 531.640625 C 242.222656 531.640625 249.894531 527.214844 255.109375 519.496094 C 261.996094 509.300781 263.351562 495.6875 258.636719 483.972656 C 258.574219 483.8125 258.507812 483.652344 258.445312 483.492188 C 256.914062 479.78125 253.378906 475.195312 249.632812 470.339844 C 242.914062 461.621094 235.292969 451.742188 233.265625 440.207031 C 230.5 424.515625 224.632812 412.984375 216.296875 406.863281 C 210.296875 402.457031 205.109375 402.308594 204.679688 402.304688 C 204.652344 402.304688 204.664062 402.304688 204.621094 402.304688 L 138.445312 402.304688 C 138.398438 402.304688 138.414062 402.304688 138.382812 402.304688 Z M 138.382812 402.304688 "/><path style=" stroke:none;fill-rule:nonzero;fill:#117f46;fill-opacity:1;" d="M 366.851562 513.339844 L 266.371094 513.339844 C 264.175781 513.339844 262.398438 511.5625 262.398438 509.367188 C 262.398438 507.175781 264.175781 505.394531 266.371094 505.394531 L 366.851562 505.394531 C 384.691406 505.394531 399.203125 490.886719 399.203125 473.050781 L 399.203125 263.664062 C 399.203125 261.46875 400.980469 259.691406 403.175781 259.691406 C 405.367188 259.691406 407.144531 261.46875 407.144531 263.664062 L 407.144531 473.050781 C 407.148438 495.265625 389.070312 513.339844 366.851562 513.339844 Z M 366.851562 513.339844 "/><path style=" stroke:none;fill-rule:nonzero;fill:#5be894;fill-opacity:1;" d="M 403.214844 474.25 C 402.53125 454.070312 409.894531 433.722656 425.296875 418.320312 C 440.722656 402.894531 461.097656 395.535156 481.273438 396.21875 C 481.933594 415.640625 475.132812 435.210938 460.875 450.417969 Z M 403.214844 474.25 "/><path style=" stroke:none;fill-rule:nonzero;fill:#117f46;fill-opacity:1;" d="M 403.210938 478.222656 C 401.082031 478.222656 399.316406 476.53125 399.246094 474.382812 C 398.882812 463.609375 400.65625 453.074219 404.519531 443.0625 C 408.515625 432.707031 414.5625 423.4375 422.488281 415.511719 C 430.421875 407.578125 439.703125 401.523438 450.074219 397.523438 C 460.089844 393.660156 470.628906 391.886719 481.410156 392.25 C 483.5 392.320312 485.175781 393.996094 485.246094 396.085938 C 485.964844 417.335938 478.339844 437.597656 463.773438 453.132812 C 462.273438 454.734375 459.757812 454.8125 458.160156 453.3125 C 456.558594 451.8125 456.480469 449.300781 457.980469 447.699219 C 470.21875 434.644531 477.011719 417.886719 477.335938 400.15625 C 458.742188 400.484375 441.386719 407.851562 428.105469 421.132812 C 413.9375 435.296875 406.507812 454.113281 407.1875 474.117188 C 407.261719 476.308594 405.542969 478.144531 403.351562 478.21875 C 403.304688 478.222656 403.257812 478.222656 403.210938 478.222656 Z M 403.210938 478.222656 "/><path style=" stroke:none;fill-rule:nonzero;fill:#5be894;fill-opacity:1;" d="M 403.175781 474.308594 C 416.945312 489.058594 436.570312 498.261719 458.375 498.261719 C 480.152344 498.261719 499.78125 489.058594 513.550781 474.308594 C 499.78125 459.5625 480.152344 450.355469 458.375 450.355469 C 436.570312 450.355469 416.945312 459.5625 403.175781 474.308594 Z M 403.175781 474.308594 "/><path style=" stroke:none;fill-rule:nonzero;fill:#117f46;fill-opacity:1;" d="M 458.375 502.234375 C 447.15625 502.234375 436.316406 499.953125 426.152344 495.449219 C 416.332031 491.097656 407.625 484.898438 400.269531 477.023438 C 398.847656 475.496094 398.847656 473.125 400.269531 471.601562 C 407.625 463.722656 416.332031 457.523438 426.152344 453.171875 C 436.316406 448.667969 447.15625 446.386719 458.375 446.386719 C 469.582031 446.386719 480.417969 448.667969 490.574219 453.171875 C 500.394531 457.523438 509.101562 463.722656 516.453125 471.601562 C 517.878906 473.125 517.878906 475.496094 516.453125 477.019531 C 509.101562 484.898438 500.394531 491.097656 490.574219 495.449219 C 480.417969 499.953125 469.582031 502.234375 458.375 502.234375 Z M 408.742188 474.308594 C 422.105469 487.222656 439.589844 494.289062 458.375 494.289062 C 476.859375 494.289062 494.726562 487.050781 507.976562 474.308594 C 494.726562 461.570312 476.859375 454.328125 458.375 454.328125 C 439.585938 454.328125 422.105469 461.398438 408.742188 474.308594 Z M 408.742188 474.308594 "/><path style=" stroke:none;fill-rule:nonzero;fill:#ffe161;fill-opacity:1;" d="M 448.621094 184.484375 L 448.621094 225.449219 C 448.621094 239.1875 441.082031 252.128906 428.65625 257.984375 C 420.925781 261.625 412.289062 263.660156 403.175781 263.660156 C 394.792969 263.660156 386.820312 261.941406 379.582031 258.832031 C 366.261719 253.113281 357.726562 239.882812 357.726562 225.386719 L 357.726562 184.484375 Z M 448.621094 184.484375 "/><path style=" stroke:none;fill-rule:nonzero;fill:#117f46;fill-opacity:1;" d="M 403.175781 267.632812 C 394.441406 267.632812 385.976562 265.902344 378.015625 262.484375 C 363.277344 256.15625 353.753906 241.59375 353.753906 225.386719 L 353.753906 184.484375 C 353.753906 182.289062 355.535156 180.511719 357.726562 180.511719 L 448.621094 180.511719 C 450.816406 180.511719 452.59375 182.289062 452.59375 184.484375 L 452.59375 225.449219 C 452.59375 241.027344 443.863281 255.210938 430.347656 261.578125 C 421.816406 265.597656 412.675781 267.632812 403.175781 267.632812 Z M 361.699219 188.457031 L 361.699219 225.386719 C 361.699219 238.414062 369.332031 250.109375 381.148438 255.183594 C 388.113281 258.171875 395.523438 259.691406 403.175781 259.691406 C 411.496094 259.691406 419.5 257.90625 426.960938 254.390625 C 437.707031 249.328125 444.648438 237.96875 444.648438 225.449219 L 444.648438 188.457031 Z M 361.699219 188.457031 "/><g clip-rule="nonzero" clip-path="url(#c067aadd73)"><path style=" stroke:none;fill-rule:nonzero;fill:#117f46;fill-opacity:1;" d="M 425.785156 188.464844 C 423.589844 188.464844 421.8125 186.6875 421.8125 184.492188 L 421.8125 145.027344 C 421.8125 142.835938 423.589844 141.054688 425.785156 141.054688 C 427.976562 141.054688 429.757812 142.835938 429.757812 145.027344 L 429.757812 184.492188 C 429.757812 186.6875 427.976562 188.464844 425.785156 188.464844 Z M 425.785156 188.464844 "/></g><g clip-rule="nonzero" clip-path="url(#56862c7a41)"><path style=" stroke:none;fill-rule:nonzero;fill:#117f46;fill-opacity:1;" d="M 380.550781 188.464844 C 378.355469 188.464844 376.578125 186.6875 376.578125 184.492188 L 376.578125 145.027344 C 376.578125 142.835938 378.359375 141.054688 380.550781 141.054688 C 382.746094 141.054688 384.523438 142.835938 384.523438 145.027344 L 384.523438 184.492188 C 384.523438 186.6875 382.746094 188.464844 380.550781 188.464844 Z M 380.550781 188.464844 "/></g><path style=" stroke:none;fill-rule:nonzero;fill:#117f46;fill-opacity:1;" d="M 182.101562 507.929688 L 162.632812 507.929688 C 153.589844 507.929688 146.230469 500.570312 146.230469 491.527344 C 146.230469 489.332031 148.011719 487.554688 150.203125 487.554688 C 152.398438 487.554688 154.175781 489.332031 154.175781 491.527344 C 154.175781 496.191406 157.96875 499.984375 162.632812 499.984375 L 182.101562 499.984375 C 186.765625 499.984375 190.558594 496.191406 190.558594 491.527344 L 190.558594 480.675781 C 190.558594 476.015625 186.765625 472.222656 182.101562 472.222656 L 162.632812 472.222656 C 153.589844 472.222656 146.230469 464.863281 146.230469 455.820312 L 146.230469 444.96875 C 146.230469 435.925781 153.589844 428.570312 162.632812 428.570312 L 182.101562 428.570312 C 191.144531 428.570312 198.503906 435.925781 198.503906 444.96875 C 198.503906 447.164062 196.722656 448.941406 194.53125 448.941406 C 192.335938 448.941406 190.558594 447.164062 190.558594 444.96875 C 190.558594 440.308594 186.765625 436.515625 182.101562 436.515625 L 162.632812 436.515625 C 157.96875 436.515625 154.175781 440.308594 154.175781 444.96875 L 154.175781 455.820312 C 154.175781 460.484375 157.96875 464.277344 162.632812 464.277344 L 182.101562 464.277344 C 191.144531 464.277344 198.503906 471.632812 198.503906 480.675781 L 198.503906 491.527344 C 198.503906 500.570312 191.144531 507.929688 182.101562 507.929688 Z M 182.101562 507.929688 "/><path style=" stroke:none;fill-rule:nonzero;fill:#117f46;fill-opacity:1;" d="M 172.367188 520.023438 C 170.171875 520.023438 168.394531 518.246094 168.394531 516.050781 L 168.394531 503.957031 C 168.394531 501.761719 170.171875 499.984375 172.367188 499.984375 C 174.5625 499.984375 176.339844 501.761719 176.339844 503.957031 L 176.339844 516.050781 C 176.339844 518.246094 174.5625 520.023438 172.367188 520.023438 Z M 172.367188 520.023438 "/><path style=" stroke:none;fill-rule:nonzero;fill:#117f46;fill-opacity:1;" d="M 172.367188 436.515625 C 170.171875 436.515625 168.394531 434.734375 168.394531 432.542969 L 168.394531 419.074219 C 168.394531 416.878906 170.171875 415.101562 172.367188 415.101562 C 174.5625 415.101562 176.339844 416.878906 176.339844 419.074219 L 176.339844 432.542969 C 176.339844 434.734375 174.5625 436.515625 172.367188 436.515625 Z M 172.367188 436.515625 "/><g clip-rule="nonzero" clip-path="url(#d001f94ce0)"><g clip-rule="nonzero" clip-path="url(#72a9f1e782)"><path style=" stroke:none;fill-rule:nonzero;fill:#ffe161;fill-opacity:1;" d="M 114.179688 410.15625 L 226.402344 410.15625 L 226.402344 522.378906 L 114.179688 522.378906 Z M 114.179688 410.15625 "/></g></g><g clip-rule="nonzero" clip-path="url(#ed5fcfbd99)"><g clip-rule="nonzero" clip-path="url(#ce062b160d)"><path style=" stroke:none;fill-rule:nonzero;fill:#60ad2f;fill-opacity:1;" d="M 570.070312 291.847656 L 682.292969 291.847656 L 682.292969 421.167969 L 570.070312 421.167969 Z M 570.070312 291.847656 "/></g></g><g mask="url(#fe0db014c1)" transform="matrix(1,0,0,1,143,403)"><g clip-path="url(#5228d625e1)"><g style="fill:#000000;fill-opacity:1;"><g transform="translate(0.543138, 98.447421)"><path style="stroke:none" d="M 35.203125 -59.03125 C 25.785156 -59.03125 19.910156 -53.082031 17.578125 -41.1875 L 40.15625 -41.1875 L 40.15625 -35.46875 L 16.953125 -35.46875 L 16.875 -32.9375 L 16.875 -30.109375 L 16.953125 -28.125 L 37.46875 -28.125 L 37.46875 -22.40625 L 17.671875 -22.40625 C 18.765625 -17.09375 20.804688 -12.984375 23.796875 -10.078125 C 26.796875 -7.171875 30.804688 -5.71875 35.828125 -5.71875 C 40.429688 -5.71875 44.988281 -6.691406 49.5 -8.640625 L 49.5 -2 C 45.195312 -0.0703125 40.519531 0.890625 35.46875 0.890625 C 28.46875 0.890625 22.832031 -1.09375 18.5625 -5.0625 C 14.300781 -9.039062 11.492188 -14.820312 10.140625 -22.40625 L 2.796875 -22.40625 L 2.796875 -28.125 L 9.515625 -28.125 L 9.4375 -29.984375 L 9.4375 -31.921875 L 9.515625 -35.46875 L 2.796875 -35.46875 L 2.796875 -41.1875 L 10.046875 -41.1875 C 11.203125 -48.882812 13.929688 -54.890625 18.234375 -59.203125 C 22.546875 -63.515625 28.203125 -65.671875 35.203125 -65.671875 C 41.140625 -65.671875 46.539062 -64.238281 51.40625 -61.375 L 48.265625 -55.21875 C 43.367188 -57.757812 39.015625 -59.03125 35.203125 -59.03125 Z M 35.203125 -59.03125 "/></g></g></g><mask id="fe0db014c1"><g filter="url(#e08d1ab244)"><rect x="0" width="900" y="0" height="1124.99995" style="fill:#000000;fill-opacity:0.71;stroke:none;"/></g></mask></g><g mask="url(#81c2578624)" transform="matrix(1,0,0,1,599,304)"><g clip-path="url(#4dc36a9182)"><g style="fill:#000000;fill-opacity:1;"><g transform="translate(0.434949, 97.947624)"><path style="stroke:none" d="M 35.203125 -59.03125 C 25.785156 -59.03125 19.910156 -53.082031 17.578125 -41.1875 L 40.15625 -41.1875 L 40.15625 -35.46875 L 16.953125 -35.46875 L 16.875 -32.9375 L 16.875 -30.109375 L 16.953125 -28.125 L 37.46875 -28.125 L 37.46875 -22.40625 L 17.671875 -22.40625 C 18.765625 -17.09375 20.804688 -12.984375 23.796875 -10.078125 C 26.796875 -7.171875 30.804688 -5.71875 35.828125 -5.71875 C 40.429688 -5.71875 44.988281 -6.691406 49.5 -8.640625 L 49.5 -2 C 45.195312 -0.0703125 40.519531 0.890625 35.46875 0.890625 C 28.46875 0.890625 22.832031 -1.09375 18.5625 -5.0625 C 14.300781 -9.039062 11.492188 -14.820312 10.140625 -22.40625 L 2.796875 -22.40625 L 2.796875 -28.125 L 9.515625 -28.125 L 9.4375 -29.984375 L 9.4375 -31.921875 L 9.515625 -35.46875 L 2.796875 -35.46875 L 2.796875 -41.1875 L 10.046875 -41.1875 C 11.203125 -48.882812 13.929688 -54.890625 18.234375 -59.203125 C 22.546875 -63.515625 28.203125 -65.671875 35.203125 -65.671875 C 41.140625 -65.671875 46.539062 -64.238281 51.40625 -61.375 L 48.265625 -55.21875 C 43.367188 -57.757812 39.015625 -59.03125 35.203125 -59.03125 Z M 35.203125 -59.03125 "/></g></g></g><mask id="81c2578624"><g filter="url(#e08d1ab244)"><rect x="0" width="900" y="0" height="1124.99995" style="fill:#000000;fill-opacity:0.71;stroke:none;"/></g></mask></g></g></svg>