<svg width="14" height="17" viewBox="0 0 14 17" fill="none" xmlns="http://www.w3.org/2000/svg">
<path d="M0 8.70479C0 4.85481 3.15003 1.7338 7 1.7338V1.7338C10.85 1.7338 14 4.85481 14 8.70479V8.70479C14 12.5548 10.85 15.6758 7 15.6758V15.6758C3.15003 15.6758 0 12.5548 0 8.70479V8.70479Z" fill="#28392F"/>
<path d="M3.987 9.93495C3.84233 9.93495 3.70467 9.89295 3.574 9.80895C3.44333 9.72961 3.34533 9.60595 3.28 9.43795C3.25667 9.37728 3.24033 9.31195 3.231 9.24195C3.22633 9.17195 3.224 9.10428 3.224 9.03895V8.94795C3.224 8.91528 3.22633 8.88495 3.231 8.85695C3.24033 8.82895 3.259 8.81495 3.287 8.81495C3.29633 8.81495 3.301 8.81961 3.301 8.82895C3.301 8.85695 3.29867 8.88495 3.294 8.91295C3.294 8.94095 3.294 8.96895 3.294 8.99695C3.294 9.21628 3.34767 9.38428 3.455 9.50095C3.567 9.61295 3.70467 9.66895 3.868 9.66895C4.03133 9.66895 4.19 9.62228 4.344 9.52895C4.498 9.43095 4.64033 9.30961 4.771 9.16495C4.84567 9.08561 4.92967 8.96661 5.023 8.80795C5.121 8.64461 5.22133 8.46261 5.324 8.26195C5.43133 8.05661 5.53867 7.84661 5.646 7.63195C5.75333 7.41261 5.856 7.20261 5.954 7.00195C6.052 6.79661 6.14067 6.61695 6.22 6.46295C6.29467 6.31828 6.395 6.20395 6.521 6.11995C6.647 6.03595 6.75433 5.97761 6.843 5.94495C6.81033 5.94495 6.74033 5.94728 6.633 5.95195C6.53033 5.95661 6.42067 5.96128 6.304 5.96595C6.18733 5.97061 6.094 5.97528 6.024 5.97995C5.84667 5.98928 5.667 6.01028 5.485 6.04295C5.303 6.07561 5.142 6.11995 5.002 6.17595C4.862 6.23195 4.76167 6.30428 4.701 6.39295C4.659 6.45361 4.638 6.52361 4.638 6.60295C4.638 6.76161 4.708 6.87595 4.848 6.94595C4.85733 6.95528 4.862 6.95995 4.862 6.95995C4.862 6.97395 4.85033 6.98795 4.827 7.00195C4.80367 7.01128 4.78033 7.01361 4.757 7.00895C4.71967 6.98561 4.673 6.94828 4.617 6.89695C4.56567 6.84095 4.51667 6.78261 4.47 6.72195C4.428 6.66128 4.4 6.60995 4.386 6.56795C4.36267 6.49795 4.351 6.44195 4.351 6.39995C4.351 6.28795 4.393 6.19695 4.477 6.12695C4.561 6.05228 4.67067 5.99628 4.806 5.95895C4.94133 5.91695 5.086 5.88895 5.24 5.87494C5.394 5.85628 5.54333 5.84461 5.688 5.83994C5.83267 5.83528 5.95633 5.83295 6.059 5.83295C6.297 5.83295 6.50933 5.83295 6.696 5.83295C6.88733 5.82828 7.06233 5.82595 7.221 5.82595C7.38433 5.82595 7.54067 5.82828 7.69 5.83295C7.844 5.83761 8.005 5.84461 8.173 5.85395C8.29433 5.85861 8.376 5.88195 8.418 5.92395C8.46467 5.96595 8.488 6.01728 8.488 6.07795C8.488 6.15728 8.46233 6.24361 8.411 6.33695C8.35967 6.43028 8.313 6.51661 8.271 6.59595C8.25233 6.63328 8.222 6.66128 8.18 6.67995C8.138 6.69395 8.12167 6.67995 8.131 6.63795C8.14033 6.59595 8.14967 6.55161 8.159 6.50495C8.16833 6.45361 8.173 6.40461 8.173 6.35795C8.173 6.27395 8.15667 6.19928 8.124 6.13395C8.09133 6.06395 8.03533 6.01495 7.956 5.98695C7.90933 5.96828 7.85333 5.95661 7.788 5.95195C7.72267 5.94261 7.65267 5.93794 7.578 5.93794C7.438 5.93794 7.298 5.95195 7.158 5.97995C7.018 6.00795 6.90833 6.05228 6.829 6.11295C6.731 6.18761 6.63067 6.30895 6.528 6.47695C6.43 6.64495 6.33667 6.82461 6.248 7.01595C6.15933 7.20728 6.08 7.37528 6.01 7.51995C6.00533 7.52928 6.003 7.54328 6.003 7.56195C6.003 7.58528 6.024 7.59695 6.066 7.59695C6.13133 7.59695 6.22233 7.59695 6.339 7.59695C6.46033 7.59695 6.58633 7.59928 6.717 7.60395C6.84767 7.60395 6.95967 7.60395 7.053 7.60395C7.15567 7.60395 7.23733 7.61095 7.298 7.62495C7.35867 7.63428 7.389 7.66461 7.389 7.71595C7.389 7.73461 7.37733 7.77195 7.354 7.82795C7.32133 7.90261 7.284 7.96795 7.242 8.02395C7.20467 8.07528 7.17433 8.12895 7.151 8.18495C7.14633 8.20361 7.12533 8.21995 7.088 8.23395C7.05067 8.24795 7.03667 8.24561 7.046 8.22695C7.06467 8.18495 7.08333 8.13361 7.102 8.07295C7.12533 8.00761 7.137 7.95161 7.137 7.90495C7.137 7.83028 7.10433 7.79295 7.039 7.79295H5.947C5.905 7.79295 5.87233 7.81161 5.849 7.84895C5.71367 8.11961 5.56667 8.40895 5.408 8.71695C5.254 9.02495 5.07433 9.28861 4.869 9.50795C4.75233 9.63395 4.617 9.73661 4.463 9.81595C4.309 9.89528 4.15033 9.93495 3.987 9.93495Z" fill="white"/>
<path d="M9.74634 6.60351C9.891 6.60351 10.0287 6.64551 10.1593 6.72951C10.29 6.80884 10.388 6.93251 10.4533 7.10051C10.4767 7.16117 10.493 7.22651 10.5023 7.29651C10.507 7.36651 10.5093 7.43417 10.5093 7.49951V7.59051C10.5093 7.62317 10.507 7.65351 10.5023 7.68151C10.493 7.70951 10.4743 7.72351 10.4463 7.72351C10.437 7.72351 10.4323 7.71884 10.4323 7.70951C10.4323 7.68151 10.4347 7.65351 10.4393 7.62551C10.4393 7.59751 10.4393 7.56951 10.4393 7.54151C10.4393 7.32217 10.3857 7.15417 10.2783 7.03751C10.1663 6.92551 10.0287 6.86951 9.86534 6.86951C9.702 6.86951 9.54334 6.91617 9.38934 7.00951C9.23534 7.10751 9.093 7.22884 8.96234 7.37351C8.88767 7.45284 8.80367 7.57184 8.71034 7.73051C8.61234 7.89384 8.512 8.07584 8.40934 8.27651C8.302 8.48184 8.19467 8.69184 8.08734 8.90651C7.98 9.12584 7.87734 9.33584 7.77934 9.53651C7.68134 9.74184 7.59267 9.92151 7.51334 10.0755C7.43867 10.2202 7.33834 10.3345 7.21234 10.4185C7.08634 10.5025 6.979 10.5608 6.89034 10.5935C6.923 10.5935 6.993 10.5912 7.10034 10.5865C7.203 10.5818 7.31267 10.5772 7.42934 10.5725C7.546 10.5678 7.63934 10.5632 7.70934 10.5585C7.88667 10.5492 8.06634 10.5282 8.24834 10.4955C8.43034 10.4628 8.59134 10.4185 8.73134 10.3625C8.87134 10.3065 8.97167 10.2342 9.03234 10.1455C9.07434 10.0848 9.09534 10.0148 9.09534 9.93551C9.09534 9.77684 9.02534 9.66251 8.88534 9.59251C8.876 9.58317 8.87134 9.57851 8.87134 9.57851C8.87134 9.56451 8.883 9.55051 8.90634 9.53651C8.92967 9.52717 8.953 9.52484 8.97634 9.52951C9.01367 9.55284 9.06034 9.59017 9.11634 9.64151C9.16767 9.69751 9.21667 9.75584 9.26334 9.81651C9.30534 9.87717 9.33334 9.92851 9.34734 9.97051C9.37067 10.0405 9.38234 10.0965 9.38234 10.1385C9.38234 10.2505 9.34034 10.3415 9.25634 10.4115C9.17234 10.4862 9.06267 10.5422 8.92734 10.5795C8.792 10.6215 8.64734 10.6495 8.49334 10.6635C8.33934 10.6822 8.19 10.6938 8.04534 10.6985C7.90067 10.7032 7.777 10.7055 7.67434 10.7055C7.43634 10.7055 7.224 10.7055 7.03734 10.7055C6.846 10.7102 6.671 10.7125 6.51234 10.7125C6.349 10.7125 6.19267 10.7102 6.04334 10.7055C5.88934 10.7008 5.72834 10.6938 5.56034 10.6845C5.439 10.6798 5.35734 10.6565 5.31534 10.6145C5.26867 10.5725 5.24534 10.5212 5.24534 10.4605C5.24534 10.3812 5.271 10.2948 5.32234 10.2015C5.37367 10.1082 5.42034 10.0218 5.46234 9.94251C5.481 9.90517 5.51134 9.87717 5.55334 9.85851C5.59534 9.84451 5.61167 9.85851 5.60234 9.90051C5.593 9.94251 5.58367 9.98684 5.57434 10.0335C5.565 10.0848 5.56034 10.1338 5.56034 10.1805C5.56034 10.2645 5.57667 10.3392 5.60934 10.4045C5.642 10.4745 5.698 10.5235 5.77734 10.5515C5.824 10.5702 5.88 10.5818 5.94534 10.5865C6.01067 10.5958 6.08067 10.6005 6.15534 10.6005C6.29534 10.6005 6.43534 10.5865 6.57534 10.5585C6.71534 10.5305 6.825 10.4862 6.90434 10.4255C7.00234 10.3508 7.10267 10.2295 7.20534 10.0615C7.30334 9.89351 7.39667 9.71384 7.48534 9.52251C7.574 9.33117 7.65334 9.16317 7.72334 9.01851C7.728 9.00917 7.73034 8.99517 7.73034 8.97651C7.73034 8.95317 7.70934 8.94151 7.66734 8.94151C7.602 8.94151 7.511 8.94151 7.39434 8.94151C7.273 8.94151 7.147 8.93917 7.01634 8.93451C6.88567 8.93451 6.77367 8.93451 6.68034 8.93451C6.57767 8.93451 6.496 8.92751 6.43534 8.91351C6.37467 8.90417 6.34434 8.87384 6.34434 8.82251C6.34434 8.80384 6.356 8.76651 6.37934 8.71051C6.412 8.63584 6.44934 8.57051 6.49134 8.51451C6.52867 8.46317 6.559 8.40951 6.58234 8.35351C6.587 8.33484 6.608 8.31851 6.64534 8.30451C6.68267 8.29051 6.69667 8.29284 6.68734 8.31151C6.66867 8.35351 6.65 8.40484 6.63134 8.46551C6.608 8.53084 6.59634 8.58684 6.59634 8.63351C6.59634 8.70817 6.629 8.74551 6.69434 8.74551H7.78634C7.82834 8.74551 7.861 8.72684 7.88434 8.68951C8.01967 8.41884 8.16667 8.12951 8.32534 7.82151C8.47934 7.51351 8.659 7.24984 8.86434 7.03051C8.981 6.90451 9.11634 6.80184 9.27034 6.72251C9.42434 6.64317 9.583 6.60351 9.74634 6.60351Z" fill="white"/>
</svg>
