<svg width="27" height="26" viewBox="0 0 27 26" fill="none" xmlns="http://www.w3.org/2000/svg">
<path d="M0 5C0 2.23858 2.23858 0 5 0H22C24.7614 0 27 2.23858 27 5V21C27 23.7614 24.7614 26 22 26H5C2.23858 26 0 23.7614 0 21V5Z" fill="white"/>
<path d="M9.12 16.092C9.12 16.396 9.136 16.644 9.168 16.836C9.208 17.02 9.288 17.164 9.408 17.268C9.528 17.364 9.696 17.432 9.912 17.472C10.136 17.512 10.428 17.536 10.788 17.544V18H6.54V17.544C6.82 17.536 7.044 17.512 7.212 17.472C7.388 17.432 7.524 17.364 7.62 17.268C7.716 17.172 7.78 17.036 7.812 16.86C7.844 16.684 7.86 16.456 7.86 16.176V10.584C7.86 10.304 7.844 10.08 7.812 9.912C7.788 9.736 7.732 9.6 7.644 9.504C7.564 9.4 7.444 9.332 7.284 9.3C7.124 9.26 6.916 9.232 6.66 9.216V8.76H13.596L13.728 11.052H13.308C13.26 10.708 13.184 10.428 13.08 10.212C12.976 9.988 12.828 9.812 12.636 9.684C12.452 9.556 12.216 9.468 11.928 9.42C11.64 9.364 11.28 9.336 10.848 9.336H9.324C9.188 9.336 9.12 9.404 9.12 9.54V13.164C9.504 13.164 9.832 13.144 10.104 13.104C10.384 13.056 10.612 12.976 10.788 12.864C10.972 12.752 11.112 12.6 11.208 12.408C11.304 12.216 11.364 11.968 11.388 11.664H11.808V15.18H11.388C11.348 14.876 11.284 14.624 11.196 14.424C11.108 14.224 10.976 14.068 10.8 13.956C10.632 13.844 10.412 13.764 10.14 13.716C9.868 13.668 9.528 13.644 9.12 13.644V16.092Z" fill="#35463B"/>
<path d="M15.2 17.82C15.2 18.3267 15.2267 18.74 15.28 19.06C15.3467 19.3667 15.48 19.6067 15.68 19.78C15.88 19.94 16.16 20.0533 16.52 20.12C16.8933 20.1867 17.38 20.2267 17.98 20.24V21H10.9V20.24C11.3667 20.2267 11.74 20.1867 12.02 20.12C12.3133 20.0533 12.54 19.94 12.7 19.78C12.86 19.62 12.9667 19.3933 13.02 19.1C13.0733 18.8067 13.1 18.4267 13.1 17.96V8.64C13.1 8.17333 13.0733 7.8 13.02 7.52C12.98 7.22667 12.8867 7 12.74 6.84C12.6067 6.66667 12.4067 6.55333 12.14 6.5C11.8733 6.43333 11.5267 6.38667 11.1 6.36V5.6H22.66L22.88 9.42H22.18C22.1 8.84667 21.9733 8.38 21.8 8.02C21.6267 7.64667 21.38 7.35333 21.06 7.14C20.7533 6.92667 20.36 6.78 19.88 6.7C19.4 6.60667 18.8 6.56 18.08 6.56H15.54C15.3133 6.56 15.2 6.67333 15.2 6.9V12.94C15.84 12.94 16.3867 12.9067 16.84 12.84C17.3067 12.76 17.6867 12.6267 17.98 12.44C18.2867 12.2533 18.52 12 18.68 11.68C18.84 11.36 18.94 10.9467 18.98 10.44H19.68V16.3H18.98C18.9133 15.7933 18.8067 15.3733 18.66 15.04C18.5133 14.7067 18.2933 14.4467 18 14.26C17.72 14.0733 17.3533 13.94 16.9 13.86C16.4467 13.78 15.88 13.74 15.2 13.74V17.82Z" fill="#35463B"/>
</svg>
