<svg xmlns="http://www.w3.org/2000/svg" xmlns:xlink="http://www.w3.org/1999/xlink" width="500" zoomAndPan="magnify" viewBox="0 0 375 374.999991" height="500" preserveAspectRatio="xMidYMid meet" version="1.2"><defs><clipPath id="4ef1c6aee6"><path d="M 64.496094 107.53125 L 119.246094 107.53125 L 119.246094 216.28125 L 64.496094 216.28125 Z M 64.496094 107.53125 "/></clipPath></defs><g id="d2451a5a36"><rect x="0" width="375" y="0" height="374.999991" style="fill:#ffffff;fill-opacity:1;stroke:none;"/><rect x="0" width="375" y="0" height="374.999991" style="fill:#f1f0f0;fill-opacity:1;stroke:none;"/><g clip-rule="nonzero" clip-path="url(#4ef1c6aee6)"><path style=" stroke:none;fill-rule:nonzero;fill:#cba65f;fill-opacity:1;" d="M 64.496094 161.921875 C 64.496094 191.878906 88.882812 216.269531 118.84375 216.269531 C 119.058594 216.269531 119.246094 216.082031 119.246094 215.867188 L 119.246094 107.976562 C 119.246094 107.761719 119.058594 107.574219 118.84375 107.574219 C 88.882812 107.574219 64.496094 131.964844 64.496094 161.921875 Z M 118.441406 215.46875 C 89.097656 215.253906 65.296875 191.316406 65.296875 161.921875 C 65.296875 132.527344 89.097656 108.589844 118.441406 108.375 Z M 118.441406 215.46875 "/></g><g style="fill:#3f574b;fill-opacity:1;"><g transform="translate(91.706666, 218.116481)"><path style="stroke:none" d="M 6.234375 -110.5625 L 20.734375 -110.5625 L 20.734375 -2.703125 L 6.578125 -2.703125 L 6.578125 0 L 51.578125 0 L 51.578125 -2.703125 L 37.078125 -2.703125 L 37.078125 -58.3125 L 50.390625 -58.3125 C 52.867188 -58.3125 54.835938 -57.945312 56.296875 -57.21875 C 57.753906 -56.488281 58.90625 -55.445312 59.75 -54.09375 C 60.59375 -52.75 61.238281 -51.117188 61.6875 -49.203125 C 62.132812 -47.296875 62.582031 -45.164062 63.03125 -42.8125 C 63.375 -41.238281 63.828125 -40.453125 64.390625 -40.453125 C 65.054688 -40.453125 65.390625 -41.179688 65.390625 -42.640625 L 65.390625 -76.859375 C 65.390625 -78.203125 65.054688 -78.875 64.390625 -78.875 C 63.828125 -78.875 63.375 -78.085938 63.03125 -76.515625 C 62.582031 -74.160156 62.132812 -72.023438 61.6875 -70.109375 C 61.238281 -68.203125 60.59375 -66.570312 59.75 -65.21875 C 58.90625 -63.875 57.753906 -62.835938 56.296875 -62.109375 C 54.835938 -61.378906 52.867188 -61.015625 50.390625 -61.015625 L 37.078125 -61.015625 L 37.078125 -110.5625 L 62.703125 -110.5625 C 66.523438 -110.5625 69.726562 -109.632812 72.3125 -107.78125 C 74.894531 -105.925781 76.972656 -103.625 78.546875 -100.875 C 80.117188 -98.125 81.269531 -95.203125 82 -92.109375 C 82.726562 -89.015625 83.148438 -86.234375 83.265625 -83.765625 C 83.265625 -82.191406 83.710938 -81.40625 84.609375 -81.40625 C 85.398438 -81.40625 85.796875 -82.132812 85.796875 -83.59375 L 85.796875 -109.21875 C 85.796875 -111.914062 84.390625 -113.265625 81.578125 -113.265625 L 6.234375 -113.265625 Z M 6.234375 -110.5625 "/></g></g><g style="fill:#3f574b;fill-opacity:1;"><g transform="translate(184.073847, 218.116481)"><path style="stroke:none" d=""/></g></g><g style="fill:#3f574b;fill-opacity:1;"><g transform="translate(158.215343, 247.258401)"><path style="stroke:none" d="M 57.671875 -35.265625 C 57.671875 -29.648438 58 -25.101562 58.65625 -21.625 C 59.320312 -18.144531 60.765625 -15.484375 62.984375 -13.640625 C 65.203125 -11.796875 68.34375 -10.503906 72.40625 -9.765625 C 76.476562 -9.023438 81.84375 -8.578125 88.5 -8.421875 L 88.5 0 L 9.984375 0 L 9.984375 -8.421875 C 15.160156 -8.578125 19.335938 -9.023438 22.515625 -9.765625 C 25.691406 -10.503906 28.164062 -11.757812 29.9375 -13.53125 C 31.71875 -15.300781 32.898438 -17.8125 33.484375 -21.0625 C 34.078125 -24.320312 34.375 -28.539062 34.375 -33.71875 L 34.375 -137.078125 C 34.375 -142.242188 34.113281 -146.414062 33.59375 -149.59375 C 33.082031 -152.78125 32.050781 -155.296875 30.5 -157.140625 C 28.945312 -158.992188 26.691406 -160.25 23.734375 -160.90625 C 20.773438 -161.570312 16.929688 -162.054688 12.203125 -162.359375 L 12.203125 -170.78125 L 140.390625 -170.78125 L 142.84375 -128.421875 L 135.078125 -128.421875 C 134.191406 -134.773438 132.785156 -139.984375 130.859375 -144.046875 C 128.941406 -148.117188 126.242188 -151.335938 122.765625 -153.703125 C 119.285156 -156.066406 114.882812 -157.726562 109.5625 -158.6875 C 104.238281 -159.65625 97.585938 -160.140625 89.609375 -160.140625 L 61.4375 -160.140625 C 58.925781 -160.140625 57.671875 -158.878906 57.671875 -156.359375 L 57.671875 -89.390625 C 64.765625 -89.390625 70.863281 -89.796875 75.96875 -90.609375 C 81.070312 -91.421875 85.285156 -92.859375 88.609375 -94.921875 C 91.929688 -96.992188 94.476562 -99.804688 96.25 -103.359375 C 98.03125 -106.910156 99.144531 -111.492188 99.59375 -117.109375 L 107.34375 -117.109375 L 107.34375 -52.125 L 99.59375 -52.125 C 98.851562 -57.738281 97.664062 -62.394531 96.03125 -66.09375 C 94.40625 -69.789062 92.003906 -72.671875 88.828125 -74.734375 C 85.648438 -76.804688 81.546875 -78.285156 76.515625 -79.171875 C 71.492188 -80.066406 65.210938 -80.515625 57.671875 -80.515625 Z M 57.671875 -35.265625 "/></g></g><g style="fill:#3f574b;fill-opacity:1;"><g transform="translate(306.816605, 247.258401)"><path style="stroke:none" d=""/></g></g></g></svg>